<svg width="53" height="53" viewBox="0 0 53 53" fill="none" xmlns="http://www.w3.org/2000/svg">
<g clip-path="url(#clip0_305_1644)">
<path d="M26.5 53C11.865 53 0 41.1363 0 26.5C0 11.8637 11.865 0 26.5 0C41.135 0 53 11.865 53 26.5C53 41.135 41.135 53 26.5 53Z" fill="#FFDB43"/>
<path d="M26.5 47.6105C14.8406 47.6105 5.38953 38.1593 5.38953 26.5C5.38953 14.8406 14.8419 5.38953 26.5 5.38953C38.1581 5.38953 47.6105 14.8406 47.6105 26.5C47.6105 38.1593 38.1593 47.6105 26.5 47.6105Z" fill="#F7BB34"/>
<path d="M25.1357 38.8967V37.2139C24.2905 37.0972 23.5018 36.8803 22.7833 36.5656C21.6083 36.0514 20.6566 35.3116 19.9531 34.3661C19.2396 33.4081 18.8283 32.2795 18.7292 31.013L18.6753 30.1779C18.649 29.7591 18.9813 29.4042 19.4013 29.4042H20.7945C21.1782 29.4042 21.4967 29.7026 21.5205 30.0863L21.5682 30.8462C21.6259 31.5685 21.8516 32.183 22.2579 32.7209C22.6754 33.2752 23.2372 33.6978 23.9733 34.015C24.3294 34.168 24.7181 34.2871 25.1357 34.3686V27.3577C23.172 26.8787 21.7613 26.2291 20.8271 25.3739C19.7838 24.4197 19.2546 23.1306 19.2546 21.5418V21.5142C19.2546 20.3506 19.5832 19.3085 20.2315 18.4144C20.8559 17.553 21.7274 16.8708 22.8221 16.3868C23.5231 16.0771 24.2981 15.8689 25.137 15.7636V14.1021C25.137 13.7008 25.463 13.3748 25.8643 13.3748H27.1997C27.601 13.3748 27.927 13.7008 27.927 14.1021V15.7912C28.6844 15.9065 29.3954 16.1147 30.05 16.4119C31.1347 16.9059 32.025 17.5994 32.6971 18.4746C33.3868 19.3737 33.7881 20.4208 33.8884 21.5882L33.9461 22.4133C33.9749 22.8334 33.6426 23.1908 33.22 23.1908H31.8294C31.4482 23.1908 31.1322 22.8961 31.1046 22.5162L31.0519 21.7901C30.9955 21.1594 30.7848 20.6202 30.4074 20.1386C30.0086 19.6295 29.4907 19.2383 28.8274 18.9411C28.5477 18.8157 28.2468 18.7167 27.9283 18.6427V25.1043L28.1252 25.1507C30.2619 25.641 31.7642 26.2981 32.7184 27.1583C33.7567 28.095 34.2834 29.4004 34.2834 31.0368V31.0506C34.2834 32.3146 33.9511 33.4394 33.2952 34.3975C32.6482 35.3417 31.7316 36.0778 30.5716 36.5831C29.7879 36.9254 28.9026 37.1474 27.9283 37.249V38.8929C27.9283 39.2942 27.6023 39.6202 27.201 39.6202H25.8655C25.4642 39.6202 25.1382 39.2942 25.1382 38.8929L25.1357 38.8967ZM27.9258 34.4301C28.4725 34.3536 28.9628 34.2244 29.3917 34.0413C30.0751 33.7504 30.5779 33.3604 30.9265 32.8476C31.2688 32.3435 31.4356 31.7616 31.4356 31.0682V31.0544C31.4356 30.2393 31.2036 29.6387 30.7284 29.2186C30.366 28.8988 29.5885 28.4411 27.927 28.016V34.4301H27.9258ZM25.1357 18.5975C24.7257 18.6703 24.3507 18.7794 24.0134 18.9236C23.3764 19.1969 22.9024 19.553 22.5651 20.0107C22.2516 20.4371 22.0999 20.9286 22.0999 21.5155V21.5431C22.0999 22.3331 22.3281 22.9049 22.8171 23.34C23.1519 23.6385 23.8178 24.0485 25.1357 24.4347V18.5963V18.5975Z" fill="white"/>
</g>
<defs>
<clipPath id="clip0_305_1644">
<rect width="53" height="53" fill="white"/>
</clipPath>
</defs>
</svg>
