<svg width="121" height="86" viewBox="0 0 121 86" fill="none" xmlns="http://www.w3.org/2000/svg">
<g clip-path="url(#clip0_305_1756)">
<path d="M46.5509 65.0953V71.8365C46.5509 72.4765 46.1945 73.0951 45.5281 73.6796C45.3383 73.846 45.1208 74.0082 44.8755 74.1746C44.408 74.486 43.8434 74.7847 43.2001 75.0748C42.9918 75.1644 42.7743 75.2583 42.5475 75.3436C41.7607 75.6551 40.8721 75.9452 39.8955 76.2055C39.6826 76.2652 39.4697 76.3249 39.2476 76.3804C38.1738 76.6449 37.0075 76.8881 35.7579 77.0929C35.545 77.127 35.3274 77.1654 35.1053 77.1996C34.0824 77.3532 33.0133 77.494 31.8979 77.6049C31.6804 77.622 31.4675 77.6476 31.2499 77.6646C30.5048 77.7329 29.7458 77.7884 28.9682 77.8353C28.7507 77.8523 28.5378 77.8652 28.3156 77.878C27.3437 77.9249 26.3533 77.9547 25.3397 77.9718C25.1268 77.9718 24.9092 77.9761 24.6917 77.9761H24.2243C23.2801 77.9761 22.3498 77.959 21.4334 77.9291C21.2159 77.9249 20.9984 77.9121 20.7808 77.9035C19.8459 77.8609 18.9342 77.8054 18.0409 77.7329C17.8234 77.7158 17.6012 77.6988 17.3883 77.6817C16.7728 77.6305 16.1665 77.5622 15.5787 77.4982C15.3612 77.4684 15.1436 77.447 14.9261 77.4172C14.1763 77.3233 13.4451 77.2166 12.7416 77.1014C12.5241 77.0673 12.3065 77.0332 12.0936 76.9905C11.4781 76.8838 10.8903 76.7686 10.321 76.6364C10.1035 76.5894 9.88596 76.5425 9.67306 76.4913C8.96494 76.3249 8.29847 76.15 7.67366 75.9537C7.4515 75.8897 7.23397 75.8172 7.02107 75.7489C6.35923 75.5313 5.75293 75.3009 5.21143 75.0535C4.98002 74.9553 4.76249 74.8487 4.55422 74.742C4.01271 74.4647 3.54526 74.1788 3.16112 73.8759C2.90656 73.6754 2.68441 73.4706 2.50853 73.2658C2.11513 72.805 1.90686 72.3271 1.90686 71.8407V65.0995H46.537L46.5509 65.0953Z" fill="#FDC400"/>
<path d="M46.5511 65.0953C46.5511 68.099 36.5587 70.5352 24.2337 70.5352C11.9086 70.5352 1.91626 68.099 1.91626 65.0953C1.91626 62.0916 11.9086 59.6554 24.2337 59.6554C36.5587 59.6554 46.5511 62.0916 46.5511 65.0953Z" fill="#FFDE00"/>
<path d="M42.5568 64.37C42.5568 66.435 34.3555 68.1118 24.2382 68.1118C14.1208 68.1118 5.91956 66.435 5.91956 64.37C5.91956 62.3049 14.1208 60.6282 24.2382 60.6282C34.3555 60.6282 42.5568 62.3049 42.5568 64.37Z" fill="#FFD000"/>
<path d="M6.47957 65.2915C8.48823 63.6702 15.6759 62.4713 24.2382 62.4713C32.8004 62.4713 39.9881 63.6702 41.9967 65.2915C42.3624 64.9972 42.5568 64.69 42.5568 64.37C42.5568 62.3049 34.3555 60.6282 24.2382 60.6282C14.1208 60.6282 5.91956 62.3049 5.91956 64.37C5.91956 64.6857 6.11394 64.9972 6.47957 65.2915Z" fill="#F8AB08"/>
<path d="M3.17968 68.1118V73.8674C2.92513 73.6668 2.70297 73.462 2.5271 73.2573V68.1118H3.17968Z" fill="#F8AB08"/>
<path d="M5.22533 69.8013V75.045C4.99391 74.9468 4.77639 74.8402 4.56812 74.7335V69.8013H5.22533Z" fill="#F8AB08"/>
<path d="M7.68762 70.8381V75.9494C7.46546 75.8854 7.24793 75.8129 7.03503 75.7446V70.8423H7.68762V70.8381Z" fill="#F8AB08"/>
<path d="M10.335 71.5336V76.6321C10.1174 76.5852 9.89991 76.5383 9.68701 76.4871V71.5378H10.335V71.5336Z" fill="#F8AB08"/>
<path d="M12.7509 72.1992V77.0972C12.5333 77.0631 12.3158 77.0289 12.1029 76.9863V72.1992H12.7509Z" fill="#F8AB08"/>
<path d="M15.5926 72.6386V77.494C15.3751 77.4641 15.1576 77.4428 14.9401 77.4129V72.6386H15.5926Z" fill="#F8AB08"/>
<path d="M18.0549 72.6386V77.7286C17.8374 77.7116 17.6152 77.6945 17.4023 77.6774V72.6386H18.0549Z" fill="#F8AB08"/>
<path d="M21.4474 72.6386V77.9249C21.2299 77.9206 21.0123 77.9078 20.7948 77.8993V72.6386H21.4474Z" fill="#F8AB08"/>
<path d="M25.3536 72.1992V77.9676C25.1407 77.9676 24.9232 77.9718 24.7057 77.9718V72.1992H25.3536Z" fill="#F8AB08"/>
<path d="M28.9822 71.5336V77.831C28.7646 77.8481 28.5517 77.8609 28.3296 77.8737V71.5336H28.9822Z" fill="#F8AB08"/>
<path d="M31.9072 71.5336V77.6006C31.6897 77.6177 31.4768 77.6433 31.2593 77.6604V71.5336H31.9072Z" fill="#F8AB08"/>
<path d="M35.7672 70.8381V77.0886C35.5543 77.1227 35.3368 77.1611 35.1146 77.1953V70.8381H35.7672Z" fill="#F8AB08"/>
<path d="M39.9048 70.1725V76.2012C39.6919 76.2609 39.479 76.3206 39.2568 76.3761V70.1725H39.9048Z" fill="#F8AB08"/>
<path d="M43.2047 68.5555V75.0705C42.9964 75.1601 42.7789 75.254 42.5521 75.3393V68.5512H43.2047V68.5555Z" fill="#F8AB08"/>
<path d="M45.5327 67.4462V73.6754C45.3429 73.8418 45.1254 74.0039 44.8801 74.1703V67.4462H45.5327Z" fill="#F8AB08"/>
<path d="M45.5327 70.6973C45.343 70.8637 45.1254 71.0258 44.8801 71.1922C44.4127 71.5037 43.848 71.8066 43.2047 72.0925C42.9964 72.1821 42.7789 72.2759 42.5521 72.3655C41.7653 72.677 40.8767 72.9671 39.9001 73.2231C39.6872 73.2828 39.4743 73.3426 39.2522 73.398C38.1784 73.6626 37.0121 73.9058 35.7625 74.1106C35.5496 74.1447 35.3321 74.1831 35.1099 74.2172C34.0871 74.3708 33.0179 74.5116 31.9025 74.6225C31.685 74.6396 31.4721 74.6652 31.2546 74.6823C30.5094 74.7548 29.7504 74.806 28.9729 74.8529C28.7553 74.87 28.5424 74.8828 28.3203 74.8956C27.3483 74.9425 26.3579 74.9724 25.3443 74.9895C25.1314 74.9895 24.9139 74.9937 24.6964 74.9937H24.2289C23.2847 74.9937 22.3545 74.9767 21.4381 74.9468C21.2205 74.9425 21.003 74.9297 20.7855 74.9212C19.8506 74.8785 18.9388 74.8231 18.0456 74.7505C17.828 74.7335 17.6059 74.7164 17.393 74.6993C16.7774 74.6481 16.1711 74.5799 15.5833 74.5159C15.3658 74.486 15.1483 74.4647 14.9308 74.4348C14.181 74.341 13.4497 74.2343 12.7462 74.1148C12.5287 74.0807 12.3112 74.0466 12.0983 74.0039C11.4827 73.8972 10.8949 73.782 10.3257 73.6498C10.1081 73.6028 9.89059 73.5559 9.6777 73.5047C8.96957 73.3383 8.30311 73.1634 7.67829 72.9671C7.45614 72.9031 7.23861 72.8306 7.02571 72.7623C6.36387 72.5447 5.75757 72.3143 5.21607 72.0669C4.98465 71.9687 4.76713 71.8621 4.55886 71.7554C4.01735 71.4781 3.5499 71.1922 3.16575 70.8893C2.9112 70.6888 2.68904 70.484 2.51317 70.2792C2.11977 69.8184 1.9115 69.3448 1.9115 68.8541V71.8322C1.9115 72.3186 2.11977 72.7964 2.51317 73.2572C2.69367 73.462 2.9112 73.6668 3.16575 73.8674C3.5499 74.166 4.01272 74.4561 4.55886 74.7335C4.76713 74.8401 4.98465 74.9468 5.21607 75.0449C5.75757 75.2924 6.36387 75.5228 7.02571 75.7404C7.23861 75.8129 7.45151 75.8812 7.67829 75.9452C8.30773 76.1372 8.9742 76.3164 9.6777 76.4828C9.89059 76.534 10.1035 76.5809 10.3257 76.6278C10.8949 76.7558 11.4827 76.8753 12.0983 76.982C12.3112 77.0246 12.5241 77.0588 12.7462 77.0929C13.4497 77.2124 14.181 77.3148 14.9308 77.4086C15.1483 77.4385 15.3612 77.4598 15.5833 77.4897C16.1758 77.5537 16.7774 77.6177 17.393 77.6731C17.6105 77.6902 17.828 77.7073 18.0456 77.7243C18.9388 77.7969 19.8552 77.8566 20.7855 77.895C21.003 77.8993 21.2159 77.9121 21.4381 77.9206C22.3545 77.9505 23.2847 77.9675 24.2289 77.9675H24.6964C24.9139 77.9675 25.1314 77.9633 25.3443 77.9633C26.3579 77.9462 27.3483 77.9163 28.3203 77.8694C28.5378 77.8566 28.7553 77.8438 28.9729 77.8267C29.7504 77.7798 30.5094 77.7243 31.2546 77.6561C31.4721 77.639 31.685 77.6134 31.9025 77.5963C33.0179 77.4854 34.0871 77.3446 35.1099 77.191C35.3274 77.1569 35.5496 77.1185 35.7625 77.0844C37.0121 76.8796 38.1784 76.6364 39.2522 76.3718C39.4697 76.3121 39.6872 76.2524 39.9001 76.1969C40.8767 75.9366 41.7653 75.6508 42.5521 75.3351C42.7789 75.2455 42.9964 75.1516 43.2047 75.0663C43.848 74.7761 44.4127 74.4775 44.8801 74.166C45.1208 73.9996 45.343 73.8375 45.5327 73.6711C46.1992 73.0866 46.5556 72.4722 46.5556 71.8279V68.8499C46.5556 69.4898 46.1992 70.1085 45.5327 70.693V70.6973Z" fill="#EBDEDE"/>
<path d="M44.63 56.9077V63.6488C44.63 64.2888 44.2736 64.9075 43.6072 65.492C43.4174 65.6584 43.1999 65.8205 42.9546 65.9869C42.4871 66.2984 41.9225 66.5971 41.2792 66.8872C41.0709 66.9768 40.8534 67.0706 40.6266 67.156C39.8444 67.4674 38.9512 67.7576 37.9746 68.0178C37.7617 68.0776 37.5442 68.1373 37.3266 68.1928C36.2529 68.4573 35.0866 68.7005 33.8369 68.9053C33.624 68.9394 33.4065 68.9778 33.1844 69.0119C32.1615 69.1655 31.0924 69.3063 29.9724 69.4173C29.7595 69.4343 29.5419 69.4599 29.3244 69.477C28.5793 69.5495 27.8202 69.6007 27.0427 69.6477C26.8251 69.6647 26.6123 69.6775 26.3901 69.6903C25.4182 69.7373 24.4277 69.7671 23.4141 69.7842C23.2012 69.7842 22.9837 69.7885 22.7615 69.7885H22.2987C21.3546 69.7885 20.4243 69.7714 19.5079 69.7415C19.2904 69.7373 19.0728 69.7245 18.8553 69.7202C17.9204 69.6775 17.0086 69.6221 16.1154 69.5495C15.8932 69.5325 15.6757 69.5154 15.4628 69.4983C14.8472 69.4471 14.2409 69.3789 13.6532 69.3149C13.4356 69.285 13.2181 69.2637 13.0006 69.2338C12.2508 69.1399 11.5149 69.0333 10.816 68.9138C10.5939 68.8797 10.381 68.8455 10.1681 68.8029C9.55254 68.6962 8.96938 68.581 8.4001 68.4488C8.18258 68.4018 7.96505 68.3549 7.75215 68.3037C7.04403 68.1373 6.37756 67.9624 5.74812 67.7661C5.52596 67.7021 5.30843 67.6296 5.09553 67.5613C4.4337 67.3437 3.8274 67.1133 3.28589 66.8659C3.05448 66.7677 2.84158 66.6611 2.62868 66.5544C2.08718 66.2771 1.61972 65.9912 1.24021 65.6883C0.985653 65.4878 0.763497 65.283 0.582995 65.0782C0.189594 64.6174 -0.0186768 64.1438 -0.0186768 63.6531V56.9119H44.6115L44.63 56.9077Z" fill="#FDC400"/>
<path d="M22.3128 62.3518C34.6358 62.3518 44.6255 59.9163 44.6255 56.9119C44.6255 53.9076 34.6358 51.472 22.3128 51.472C9.98977 51.472 0 53.9076 0 56.9119C0 59.9163 9.98977 62.3518 22.3128 62.3518Z" fill="#FFDE00"/>
<path d="M40.6313 56.1866C40.6313 58.2516 32.4301 59.9284 22.3127 59.9284C12.1954 59.9284 3.99414 58.2516 3.99414 56.1866C3.99414 54.1216 12.1954 52.4448 22.3127 52.4448C32.4301 52.4448 40.6313 54.1216 40.6313 56.1866Z" fill="#FFD000"/>
<path d="M4.5588 57.1082C6.56746 55.4869 13.7551 54.288 22.3174 54.288C30.8796 54.288 38.0673 55.4869 40.076 57.1082C40.4416 56.8138 40.636 56.5066 40.636 56.1909C40.636 54.1259 32.4347 52.4491 22.3174 52.4491C12.2 52.4491 3.99878 54.1259 3.99878 56.1909C3.99878 56.5066 4.19317 56.8181 4.5588 57.1082Z" fill="#F8AB08"/>
<path d="M1.2589 59.9284V65.684C1.00434 65.4835 0.782186 65.2787 0.601685 65.0739V59.9284H1.2589Z" fill="#F8AB08"/>
<path d="M3.30455 61.618V66.8616C3.07314 66.7635 2.86024 66.6568 2.64734 66.5501V61.618H3.30455Z" fill="#F8AB08"/>
<path d="M5.7622 62.6548V67.7661C5.54005 67.7021 5.32252 67.6296 5.10962 67.5614V62.659H5.7622V62.6548Z" fill="#F8AB08"/>
<path d="M8.41419 63.3502V68.4488C8.19666 68.4019 7.97913 68.3549 7.76624 68.3037V63.3545H8.41419V63.3502Z" fill="#F8AB08"/>
<path d="M10.8301 64.0158V68.9138C10.6079 68.8797 10.395 68.8456 10.1821 68.8029V64.0158H10.8301Z" fill="#F8AB08"/>
<path d="M13.6672 64.4553V69.3106C13.4497 69.2808 13.2322 69.2594 13.0146 69.2296V64.4553H13.6672Z" fill="#F8AB08"/>
<path d="M16.134 64.4553V69.5453C15.9119 69.5282 15.6943 69.5112 15.4814 69.4941V64.4553H16.134Z" fill="#F8AB08"/>
<path d="M19.5266 64.4553V69.7416C19.3091 69.7373 19.0916 69.7245 18.874 69.7202V64.4595H19.5266V64.4553Z" fill="#F8AB08"/>
<path d="M23.4282 64.0158V69.7842C23.2153 69.7842 22.9978 69.7885 22.7756 69.7885V64.0115H23.4282V64.0158Z" fill="#F8AB08"/>
<path d="M27.0568 63.3502V69.6477C26.8392 69.6648 26.6263 69.6776 26.4042 69.6904V63.3502H27.0568Z" fill="#F8AB08"/>
<path d="M29.9818 63.3502V69.4173C29.7689 69.4344 29.5514 69.46 29.3339 69.477V63.3502H29.9818Z" fill="#F8AB08"/>
<path d="M33.8464 62.6548V68.9053C33.6335 68.9395 33.416 68.9779 33.1938 69.012V62.6548H33.8464Z" fill="#F8AB08"/>
<path d="M37.9794 61.9891V68.0178C37.7665 68.0776 37.5489 68.1373 37.3314 68.1927V61.9891H37.9794Z" fill="#F8AB08"/>
<path d="M41.2839 60.3721V66.8872C41.0757 66.9768 40.8581 67.0707 40.6313 67.156V60.3679H41.2839V60.3721Z" fill="#F8AB08"/>
<path d="M43.6073 59.2628V65.492C43.4175 65.6584 43.2 65.8206 42.9547 65.987V59.2671H43.6073V59.2628Z" fill="#F8AB08"/>
<path d="M43.6072 62.514C43.4174 62.6804 43.1999 62.8425 42.9546 63.0089C42.4871 63.3204 41.9225 63.6233 41.2792 63.9092C41.0709 63.9988 40.8534 64.0926 40.6266 64.178C39.8444 64.4894 38.9512 64.7795 37.9746 65.0398C37.7617 65.0995 37.5442 65.1593 37.3266 65.2147C36.2529 65.4793 35.0866 65.7225 33.8369 65.9273C33.624 65.9614 33.4065 65.9998 33.1844 66.0339C32.1615 66.1875 31.0924 66.3283 29.9724 66.4392C29.7595 66.4563 29.5419 66.4819 29.3244 66.499C28.5793 66.5672 27.8202 66.6227 27.0427 66.6696C26.8251 66.6867 26.6123 66.6995 26.3901 66.7123C25.4182 66.7592 24.4277 66.7891 23.4141 66.8062C23.2012 66.8062 22.9837 66.8104 22.7615 66.8104H22.2987C21.3546 66.8104 20.4243 66.7934 19.5079 66.7635C19.2904 66.7592 19.0728 66.7464 18.8553 66.7379C17.9204 66.6952 17.0086 66.6398 16.1154 66.5672C15.8932 66.5502 15.6757 66.5331 15.4628 66.516C14.8472 66.4648 14.2409 66.3966 13.6532 66.3326C13.4356 66.3027 13.2181 66.2814 13.0006 66.2515C12.2508 66.1577 11.5149 66.051 10.816 65.9315C10.5939 65.8974 10.381 65.859 10.1681 65.8206C9.55254 65.7139 8.96938 65.5987 8.4001 65.4665C8.18258 65.4195 7.96505 65.3726 7.75215 65.3171C7.04403 65.1507 6.37756 64.9758 5.74812 64.7795C5.52596 64.7155 5.30843 64.643 5.09553 64.5748C4.4337 64.3572 3.8274 64.1268 3.28589 63.8793C3.05448 63.7812 2.84158 63.6745 2.62868 63.5678C2.08718 63.2905 1.61972 63.0004 1.24021 62.7017C0.985653 62.5012 0.763497 62.2964 0.582995 62.0916C0.189594 61.6308 -0.0186768 61.1572 -0.0186768 60.6666V63.6446C-0.0186768 64.131 0.189594 64.6089 0.582995 65.0697C0.763497 65.2745 0.981024 65.4793 1.24021 65.6798C1.62435 65.9785 2.08718 66.2686 2.62868 66.5459C2.83695 66.6526 3.05448 66.7592 3.28589 66.8574C3.8274 67.1048 4.4337 67.3352 5.09553 67.5528C5.30843 67.6254 5.52133 67.6936 5.74812 67.7576C6.37756 67.9539 7.04403 68.1288 7.75215 68.2952C7.96505 68.3464 8.17795 68.3933 8.4001 68.4403C8.96938 68.5683 9.55716 68.6877 10.1681 68.7944C10.381 68.8371 10.5939 68.8712 10.816 68.9053C11.5195 69.0248 12.2508 69.1272 13.0006 69.2253C13.2135 69.2552 13.431 69.2765 13.6532 69.3064C14.2456 69.3704 14.8472 69.4344 15.4628 69.4899C15.6803 69.5069 15.8979 69.524 16.1154 69.5411C17.0086 69.6136 17.925 69.6691 18.8553 69.7117C19.0728 69.716 19.2857 69.7288 19.5079 69.7331C20.4243 69.7629 21.3499 69.78 22.2987 69.78H22.7615C22.9791 69.78 23.1966 69.7757 23.4141 69.7757C24.4277 69.7586 25.4182 69.7288 26.3901 69.6819C26.6123 69.6691 26.8251 69.6563 27.0427 69.6392C27.8202 69.5923 28.5793 69.5411 29.3244 69.4685C29.5419 69.4515 29.7548 69.4259 29.9724 69.4088C31.0878 69.2979 32.1615 69.1571 33.1844 69.0035C33.4019 68.9693 33.624 68.9309 33.8369 68.8968C35.0866 68.692 36.2483 68.4488 37.3266 68.1843C37.5442 68.1245 37.7617 68.0648 37.9746 68.0093C38.9512 67.7491 39.8398 67.4632 40.6266 67.1475C40.8534 67.0579 41.0709 66.964 41.2792 66.8787C41.9225 66.5886 42.4825 66.2899 42.9546 65.9785C43.1953 65.8121 43.4174 65.6499 43.6072 65.4835C44.2736 64.899 44.63 64.2846 44.63 63.6404V60.6623C44.63 61.3023 44.2736 61.9209 43.6072 62.5055V62.514Z" fill="#EBDEDE"/>
<path d="M46.5509 48.319V55.0602C46.5509 55.7002 46.1945 56.3189 45.5281 56.9034C45.3383 57.0655 45.1208 57.2319 44.8755 57.3983C44.408 57.7098 43.8434 58.0127 43.2001 58.2986C42.9918 58.3882 42.7743 58.482 42.5475 58.5716C41.7607 58.8831 40.8721 59.1732 39.8955 59.4292C39.6826 59.4889 39.4697 59.5487 39.2476 59.6084C38.1738 59.8729 37.0075 60.1161 35.7579 60.3209C35.545 60.3551 35.3274 60.3935 35.1053 60.4276C34.0824 60.5812 33.0133 60.722 31.8979 60.8329C31.6804 60.85 31.4675 60.8756 31.2499 60.8926C30.5048 60.9652 29.7458 61.0164 28.9682 61.0633C28.7507 61.0804 28.5378 61.0932 28.3156 61.106C27.3437 61.1529 26.3533 61.1828 25.3397 61.1998C25.1268 61.1998 24.9092 61.2041 24.6917 61.2041H24.2243C23.2801 61.2041 22.3498 61.187 21.4334 61.1572C21.2159 61.1529 20.9984 61.1401 20.7808 61.1316C19.8459 61.0889 18.9342 61.0334 18.0409 60.9609C17.8234 60.9438 17.6012 60.9268 17.3883 60.9097C16.7728 60.8585 16.1665 60.7902 15.5787 60.7263C15.3612 60.6964 15.1436 60.6751 14.9261 60.6452C14.1763 60.5513 13.4451 60.4447 12.7416 60.3252C12.5241 60.2911 12.3065 60.2569 12.0936 60.2143C11.4781 60.1076 10.8903 59.9924 10.321 59.8601C10.1035 59.8132 9.88596 59.7663 9.67306 59.7151C8.96494 59.5487 8.29847 59.3737 7.67366 59.1775C7.4515 59.1135 7.23397 59.041 7.02107 58.9727C6.35923 58.7551 5.75293 58.5247 5.21143 58.2772C4.98002 58.1791 4.76249 58.0724 4.55422 57.9658C4.01271 57.6884 3.54526 57.4026 3.16112 57.0997C2.90656 56.8991 2.68441 56.6943 2.50853 56.4895C2.11513 56.0287 1.90686 55.5552 1.90686 55.0645V48.3233H46.537L46.5509 48.319Z" fill="#FDC400"/>
<path d="M46.5511 48.319C46.5511 51.3227 36.5587 53.7589 24.2337 53.7589C11.9086 53.7589 1.91626 51.3227 1.91626 48.319C1.91626 45.3154 11.9086 42.8792 24.2337 42.8792C36.5587 42.8792 46.5511 45.3154 46.5511 48.319Z" fill="#FFDE00"/>
<path d="M42.5568 47.5937C42.5568 49.6587 34.3555 51.3355 24.2382 51.3355C14.1208 51.3355 5.91956 49.663 5.91956 47.5937C5.91956 45.5244 14.1208 43.8519 24.2382 43.8519C34.3555 43.8519 42.5568 45.5287 42.5568 47.5937Z" fill="#FFD000"/>
<path d="M6.47957 48.5153C8.48823 46.894 15.6759 45.6951 24.2382 45.6951C32.8004 45.6951 39.9881 46.894 41.9967 48.5153C42.3624 48.2209 42.5568 47.9137 42.5568 47.5937C42.5568 45.5287 34.3555 43.8519 24.2382 43.8519C14.1208 43.8519 5.91956 45.5287 5.91956 47.5937C5.91956 47.9095 6.11394 48.2209 6.47957 48.5153Z" fill="#F8AB08"/>
<path d="M3.17968 51.3355V57.0911C2.92513 56.8906 2.70297 56.6858 2.5271 56.481V51.3355H3.17968Z" fill="#F8AB08"/>
<path d="M5.22533 53.0251V58.2687C4.99391 58.1706 4.77639 58.0639 4.56812 57.9573V53.0251H5.22533Z" fill="#F8AB08"/>
<path d="M7.68762 54.0618V59.1732C7.46546 59.1092 7.24793 59.0367 7.03503 58.9684V54.0661H7.68762V54.0618Z" fill="#F8AB08"/>
<path d="M10.335 54.7573V59.8559C10.1174 59.809 9.89991 59.762 9.68701 59.7108V54.7616H10.335V54.7573Z" fill="#F8AB08"/>
<path d="M12.7509 55.4229V60.321C12.5333 60.2868 12.3158 60.2527 12.1029 60.21V55.4229H12.7509Z" fill="#F8AB08"/>
<path d="M15.5926 55.8624V60.7177C15.3751 60.6879 15.1576 60.6665 14.9401 60.6367V55.8624H15.5926Z" fill="#F8AB08"/>
<path d="M18.0549 55.8624V60.9524C17.8374 60.9353 17.6152 60.9183 17.4023 60.9012V55.8624H18.0549Z" fill="#F8AB08"/>
<path d="M21.4474 55.8624V61.1487C21.2299 61.1444 21.0123 61.1316 20.7948 61.1231V55.8624H21.4474Z" fill="#F8AB08"/>
<path d="M25.3536 55.4229V61.1913C25.1407 61.1913 24.9232 61.1956 24.7057 61.1956V55.4229H25.3536Z" fill="#F8AB08"/>
<path d="M28.9822 54.7573V61.0548C28.7646 61.0719 28.5517 61.0847 28.3296 61.0975V54.7573H28.9822Z" fill="#F8AB08"/>
<path d="M31.9072 54.7573V60.8244C31.6897 60.8415 31.4768 60.8671 31.2593 60.8841V54.7573H31.9072Z" fill="#F8AB08"/>
<path d="M35.7672 54.0618V60.3124C35.5543 60.3465 35.3368 60.3849 35.1146 60.419V54.0618H35.7672Z" fill="#F8AB08"/>
<path d="M39.9048 53.3962V59.4249C39.6919 59.4847 39.479 59.5444 39.2568 59.6041V53.4005H39.9048V53.3962Z" fill="#F8AB08"/>
<path d="M43.2047 51.7792V58.2943C42.9964 58.3839 42.7789 58.4778 42.5521 58.5674V51.7792H43.2047Z" fill="#F8AB08"/>
<path d="M45.5327 50.6699V56.8991C45.3429 57.0613 45.1254 57.2277 44.8801 57.3941V50.6699H45.5327Z" fill="#F8AB08"/>
<path d="M45.5327 53.921C45.343 54.0874 45.1254 54.2496 44.8801 54.416C44.4127 54.7274 43.848 55.0261 43.2047 55.3162C42.9964 55.4058 42.7789 55.4997 42.5521 55.5893C41.7653 55.9007 40.8767 56.1909 39.9001 56.4511C39.6872 56.5109 39.4743 56.5663 39.2522 56.6261C38.1784 56.8906 37.0121 57.1338 35.7625 57.3386C35.5496 57.3727 35.3321 57.4068 35.1099 57.4452C34.0871 57.5988 33.0179 57.7396 31.9025 57.8506C31.685 57.8676 31.4721 57.8932 31.2546 57.9103C30.5094 57.9786 29.7504 58.034 28.9729 58.081C28.7553 58.098 28.5424 58.1108 28.3203 58.1236C27.3483 58.1706 26.3579 58.2004 25.3443 58.2175C25.1314 58.2175 24.9139 58.2218 24.6964 58.2218H24.2289C23.2847 58.2218 22.3545 58.2047 21.4381 58.1748C21.2205 58.1706 21.003 58.1578 20.7855 58.1492C19.8506 58.1066 18.9388 58.0511 18.0456 57.9786C17.828 57.9615 17.6059 57.9444 17.393 57.9274C16.7774 57.8762 16.1711 57.8079 15.5833 57.7439C15.3658 57.714 15.1483 57.6927 14.9308 57.6628C14.181 57.569 13.4497 57.4623 12.7462 57.3471C12.5287 57.313 12.3112 57.2746 12.0983 57.2362C11.4827 57.1295 10.8949 57.0143 10.3257 56.8821C10.1081 56.8351 9.89059 56.7882 9.6777 56.7327C8.96957 56.5663 8.30311 56.3914 7.67829 56.1994C7.45614 56.1354 7.23861 56.0629 7.02571 55.9946C6.36387 55.777 5.75757 55.5466 5.21607 55.2992C4.98465 55.201 4.76713 55.0944 4.55886 54.9877C4.01735 54.7104 3.5499 54.4245 3.16575 54.1216C2.9112 53.921 2.68904 53.7163 2.51317 53.5115C2.11977 53.0507 1.9115 52.5771 1.9115 52.0864V55.0645C1.9115 55.5552 2.11977 56.0287 2.51317 56.4895C2.69367 56.6943 2.9112 56.9034 3.16575 57.0997C3.5499 57.3983 4.01272 57.6884 4.55886 57.9658C4.76713 58.0724 4.98465 58.1791 5.21607 58.2772C5.75757 58.5247 6.36387 58.7551 7.02571 58.9727C7.23861 59.0452 7.45151 59.1135 7.67829 59.1775C8.30773 59.3737 8.9742 59.5487 9.6777 59.7151C9.89059 59.7663 10.1035 59.8132 10.3257 59.8601C10.8949 59.9881 11.4827 60.1076 12.0983 60.2143C12.3112 60.2569 12.5241 60.2911 12.7462 60.3252C13.4497 60.4447 14.181 60.5471 14.9308 60.6452C15.1483 60.675 15.3612 60.6964 15.5833 60.7262C16.1758 60.7902 16.7774 60.8542 17.393 60.9097C17.6105 60.9268 17.828 60.9438 18.0456 60.9609C18.9388 61.0334 19.8552 61.0889 20.7855 61.1316C21.003 61.1401 21.2159 61.1486 21.4381 61.1572C22.3545 61.187 23.2847 61.2041 24.2289 61.2041H24.6964C24.9139 61.2041 25.1314 61.1998 25.3443 61.1998C26.3579 61.1828 27.3483 61.1529 28.3203 61.106C28.5378 61.0932 28.7553 61.0804 28.9729 61.0633C29.7504 61.0164 30.5094 60.9652 31.2546 60.8926C31.4721 60.8756 31.685 60.85 31.9025 60.8329C33.0179 60.722 34.0871 60.5812 35.1099 60.4276C35.3274 60.3935 35.5496 60.3551 35.7625 60.3209C37.0121 60.1161 38.1784 59.8729 39.2522 59.6084C39.4697 59.5487 39.6872 59.4889 39.9001 59.4292C40.8767 59.1689 41.7653 58.8831 42.5521 58.5716C42.7789 58.482 42.9964 58.3882 43.2047 58.2986C43.848 58.0127 44.4127 57.7098 44.8801 57.3983C45.1208 57.2319 45.343 57.0698 45.5327 56.9034C46.1992 56.3189 46.5556 55.7002 46.5556 55.0602V52.0822C46.5556 52.7221 46.1992 53.3408 45.5327 53.9253V53.921Z" fill="#EBDEDE"/>
<path d="M48.9577 40.1357V46.8769C48.9577 47.5169 48.6013 48.1356 47.9349 48.7201C47.7451 48.8865 47.523 49.0486 47.2823 49.215C46.8148 49.5265 46.2502 49.8294 45.6069 50.1153C45.3986 50.2049 45.1811 50.2987 44.9543 50.3883C44.1675 50.6998 43.2789 50.9899 42.3023 51.2502C42.0894 51.3099 41.8765 51.3697 41.6543 51.4251C40.5806 51.6896 39.4143 51.9328 38.1646 52.1376C37.9517 52.1718 37.7342 52.2102 37.5121 52.2443C36.4892 52.3979 35.4201 52.5387 34.3047 52.6496C34.0872 52.6667 33.8743 52.6923 33.6567 52.7094C32.9116 52.7776 32.1526 52.8331 31.375 52.88C31.1621 52.8971 30.9446 52.9099 30.7271 52.9227C29.7551 52.9696 28.7647 52.9995 27.7511 53.0166C27.5336 53.0166 27.3207 53.0208 27.0985 53.0208H26.6311C25.6869 53.0208 24.7566 53.0038 23.8402 52.9739C23.6227 52.9696 23.4052 52.9568 23.1923 52.9483C22.2574 52.9056 21.3456 52.8502 20.4523 52.7776C20.2348 52.7606 20.0127 52.7435 19.7998 52.7264C19.1842 52.6752 18.5779 52.607 17.9901 52.543C17.7726 52.5131 17.5551 52.4918 17.3375 52.4619C16.5878 52.368 15.8519 52.2614 15.153 52.1419C14.9355 52.1078 14.7179 52.0736 14.505 52.031C13.8895 51.9243 13.3063 51.8091 12.7371 51.6768C12.5195 51.6299 12.302 51.583 12.0891 51.5275C11.381 51.3611 10.7145 51.1862 10.0897 50.9899C9.86755 50.9259 9.65002 50.8534 9.44175 50.7851C8.77991 50.5675 8.17361 50.3371 7.6321 50.0897C7.40069 49.9915 7.18779 49.8849 6.97952 49.7782C6.43802 49.5009 5.97056 49.2108 5.59105 48.9121C5.33187 48.7116 5.11434 48.5068 4.93846 48.302C4.54506 47.8412 4.33679 47.3676 4.33679 46.8769V40.1357H48.967H48.9577Z" fill="#FDC400"/>
<path d="M48.9576 40.1358C48.9576 43.1394 38.9652 45.5756 26.6402 45.5756C14.3151 45.5756 4.32275 43.1394 4.32275 40.1358C4.32275 37.1321 14.3151 34.6959 26.6402 34.6959C38.9652 34.6959 48.9576 37.1321 48.9576 40.1358Z" fill="#FFDE00"/>
<path d="M44.9587 39.4147C44.9587 41.4797 36.7575 43.1565 26.6401 43.1565C16.5228 43.1565 8.32153 41.4797 8.32153 39.4147C8.32153 37.3497 16.5228 35.6729 26.6401 35.6729C36.7575 35.6729 44.9587 37.3497 44.9587 39.4147Z" fill="#FFD000"/>
<path d="M8.88155 40.332C10.8902 38.7107 18.0779 37.5118 26.6401 37.5118C35.2024 37.5118 42.3901 38.7107 44.3987 40.332C44.7643 40.0376 44.9587 39.7304 44.9587 39.4147C44.9587 37.3497 36.7575 35.6729 26.6401 35.6729C16.5228 35.6729 8.32153 37.3497 8.32153 39.4147C8.32153 39.7304 8.51592 40.0419 8.88155 40.332Z" fill="#F8AB08"/>
<path d="M5.58166 43.1522V48.9078C5.32248 48.7073 5.10495 48.5025 4.92908 48.2977V43.1522H5.58166Z" fill="#F8AB08"/>
<path d="M7.62731 44.8418V50.0854C7.3959 49.9873 7.183 49.8806 6.97473 49.774V44.8418H7.62731Z" fill="#F8AB08"/>
<path d="M10.0896 45.8785V50.9899C9.86745 50.9259 9.64992 50.8534 9.44165 50.7851V45.8828H10.0896V45.8785Z" fill="#F8AB08"/>
<path d="M12.7369 46.574V51.6726C12.5194 51.6257 12.3019 51.5787 12.089 51.5233V46.574H12.7369Z" fill="#F8AB08"/>
<path d="M15.1575 47.2396V52.1377C14.9399 52.1035 14.7224 52.0694 14.5095 52.0267V47.2396H15.1575Z" fill="#F8AB08"/>
<path d="M17.9946 47.6791V52.5344C17.7771 52.5046 17.5596 52.4832 17.342 52.4534V47.6791H17.9946Z" fill="#F8AB08"/>
<path d="M20.4614 47.6791V52.7691C20.2439 52.752 20.0217 52.735 19.8088 52.7179V47.6791H20.4614Z" fill="#F8AB08"/>
<path d="M23.8494 47.6791V52.9654C23.6318 52.9611 23.4143 52.9483 23.2014 52.9398V47.6791H23.8494Z" fill="#F8AB08"/>
<path d="M27.7556 47.2396V53.008C27.5381 53.008 27.3252 53.0123 27.103 53.0123V47.2396H27.7556Z" fill="#F8AB08"/>
<path d="M31.3842 46.574V52.8715C31.1713 52.8886 30.9537 52.9014 30.7362 52.9142V46.574H31.3842Z" fill="#F8AB08"/>
<path d="M34.3092 46.574V52.6411C34.0917 52.6582 33.8788 52.6838 33.6613 52.7008V46.574H34.3092Z" fill="#F8AB08"/>
<path d="M38.1692 45.8785V52.1291C37.9563 52.1632 37.7388 52.2016 37.5166 52.2357V45.8785H38.1692Z" fill="#F8AB08"/>
<path d="M42.3068 45.213V51.2416C42.0939 51.3014 41.881 51.3611 41.6588 51.4166V45.213H42.3068Z" fill="#F8AB08"/>
<path d="M45.6067 43.5959V50.111C45.3984 50.2006 45.1809 50.2945 44.9541 50.3841V43.5959H45.6067Z" fill="#F8AB08"/>
<path d="M47.9347 42.4866V48.7158C47.7449 48.8822 47.5228 49.0444 47.2821 49.2108V42.4909H47.9347V42.4866Z" fill="#F8AB08"/>
<path d="M47.9349 45.7378C47.7451 45.9042 47.523 46.0663 47.2823 46.2327C46.8148 46.5441 46.2502 46.8428 45.6069 47.1329C45.3986 47.2225 45.1811 47.3164 44.9543 47.4017C44.1675 47.7132 43.2789 48.0033 42.3023 48.2593C42.0894 48.319 41.8765 48.3788 41.6543 48.4342C40.5806 48.6988 39.4143 48.942 38.1646 49.1468C37.9517 49.1809 37.7342 49.2193 37.5121 49.2534C36.4892 49.407 35.4201 49.5478 34.3047 49.6587C34.0872 49.6758 33.8743 49.7014 33.6567 49.7185C32.9116 49.7867 32.1526 49.8422 31.375 49.8891C31.1621 49.9062 30.9446 49.919 30.7271 49.9318C29.7551 49.9787 28.7647 50.0086 27.7511 50.0257C27.5336 50.0257 27.3207 50.0299 27.0985 50.0299H26.6311C25.6869 50.0299 24.7566 50.0129 23.8402 49.983C23.6227 49.9787 23.4052 49.9659 23.1923 49.9617C22.2574 49.919 21.3456 49.8635 20.4523 49.791C20.2348 49.7739 20.0127 49.7569 19.7998 49.7398C19.1842 49.6886 18.5779 49.6203 17.9901 49.5563C17.7726 49.5265 17.5551 49.5051 17.3375 49.4753C16.5878 49.3814 15.8519 49.2748 15.153 49.1553C14.9355 49.1212 14.7179 49.087 14.505 49.0444C13.8895 48.9377 13.3063 48.8225 12.7371 48.6902C12.5195 48.6433 12.302 48.5964 12.0891 48.5452C11.381 48.3788 10.7145 48.2038 10.0897 48.0076C9.86755 47.9436 9.65002 47.871 9.44175 47.8028C8.77991 47.5852 8.17361 47.3548 7.6321 47.1073C7.40069 47.0092 7.18779 46.9025 6.97952 46.7959C6.43802 46.5185 5.97056 46.2327 5.59105 45.9298C5.33187 45.7292 5.11434 45.5244 4.93846 45.3196C4.54506 44.8588 4.33679 44.3852 4.33679 43.8946V46.8727C4.33679 47.3633 4.54506 47.8369 4.93846 48.2977C5.11434 48.5025 5.33649 48.7073 5.59105 48.9078C5.97519 49.2065 6.43802 49.4966 6.97952 49.7739C7.18779 49.8806 7.40532 49.9873 7.6321 50.0854C8.17361 50.3329 8.77991 50.5633 9.44175 50.7809C9.65465 50.8491 9.86755 50.9217 10.0897 50.9857C10.7191 51.1819 11.3856 51.3568 12.0891 51.5232C12.302 51.5744 12.5149 51.6256 12.7371 51.6726C13.3063 51.8006 13.8941 51.92 14.505 52.0267C14.7179 52.0694 14.9355 52.1035 15.153 52.1376C15.8565 52.2571 16.5878 52.3638 17.3375 52.4576C17.5551 52.4875 17.768 52.5088 17.9901 52.5387C18.5825 52.6027 19.1842 52.6667 19.7998 52.7222C20.0173 52.7392 20.2348 52.7563 20.4523 52.7734C21.3456 52.8459 22.262 52.9013 23.1923 52.944C23.4052 52.9483 23.6227 52.9611 23.8402 52.9696C24.7566 52.9995 25.6869 53.0165 26.6311 53.0165H27.0985C27.316 53.0165 27.5336 53.0123 27.7511 53.0123C28.7647 52.9952 29.7551 52.9653 30.7271 52.9184C30.9446 52.9056 31.1621 52.8971 31.375 52.8757C32.1526 52.8288 32.9116 52.7776 33.6567 52.7051C33.8743 52.688 34.0872 52.6624 34.3047 52.6454C35.4201 52.5344 36.4892 52.3936 37.5121 52.24C37.7296 52.2059 37.9517 52.1675 38.1646 52.1334C39.4143 51.9286 40.5806 51.6854 41.6543 51.4208C41.8719 51.3611 42.0894 51.3014 42.3023 51.2459C43.2789 50.9857 44.1675 50.6998 44.9543 50.3841C45.1811 50.2945 45.3986 50.2006 45.6069 50.111C46.2502 49.8209 46.8102 49.5222 47.2823 49.2108C47.523 49.0444 47.7451 48.8822 47.9349 48.7158C48.6013 48.1313 48.9577 47.5169 48.9577 46.8727V43.8946C48.9577 44.5346 48.6013 45.1532 47.9349 45.7378Z" fill="#EBDEDE"/>
<path d="M98.0864 65.0953V71.8365C98.0864 72.4765 97.7301 73.0951 97.0636 73.6796C96.8738 73.846 96.6563 74.0082 96.411 74.1746C95.9436 74.486 95.3789 74.7847 94.7356 75.0748C94.5273 75.1644 94.3144 75.2583 94.083 75.3436C93.2962 75.6551 92.4076 75.9452 91.431 76.2055C91.2181 76.2652 91.0052 76.3249 90.7831 76.3804C89.7093 76.6449 88.543 76.8881 87.2934 77.0929C87.0805 77.127 86.8629 77.1654 86.6408 77.1996C85.6179 77.3532 84.5488 77.494 83.4288 77.6049C83.2113 77.622 82.9984 77.6476 82.7808 77.6646C82.0357 77.7329 81.2766 77.7884 80.4991 77.8353C80.2816 77.8523 80.0687 77.8652 79.8465 77.878C78.8746 77.9249 77.8841 77.9547 76.8706 77.9718C76.653 77.9718 76.4401 77.9761 76.2226 77.9761H75.7551C74.811 77.9761 73.8807 77.959 72.9643 77.9291C72.7468 77.9249 72.5293 77.9121 72.3117 77.9035C71.3768 77.8609 70.4651 77.8054 69.5718 77.7329C69.3497 77.7158 69.1321 77.6988 68.9146 77.6817C68.299 77.6305 67.6927 77.5622 67.105 77.4982C66.8874 77.4684 66.6699 77.447 66.4524 77.4172C65.7026 77.3233 64.9667 77.2166 64.2678 77.1014C64.0457 77.0673 63.8328 77.0332 63.6199 76.9905C63.0043 76.8838 62.4165 76.7686 61.8473 76.6364C61.6297 76.5894 61.4122 76.5425 61.1993 76.4913C60.4912 76.3249 59.8247 76.15 59.1999 75.9537C58.9778 75.8897 58.7602 75.8172 58.5473 75.7489C57.8855 75.5313 57.2792 75.3009 56.7377 75.0535C56.5063 74.9553 56.2887 74.8487 56.0805 74.742C55.539 74.4647 55.0715 74.1788 54.692 73.8759C54.4374 73.6754 54.2153 73.4706 54.0394 73.2658C53.646 72.805 53.4377 72.3271 53.4377 71.8407V65.0995H98.0679L98.0864 65.0953Z" fill="#FDC400"/>
<path d="M98.0865 65.0953C98.0865 68.099 88.0941 70.5352 75.7691 70.5352C63.444 70.5352 53.4517 68.099 53.4517 65.0953C53.4517 62.0916 63.444 59.6554 75.7691 59.6554C88.0941 59.6554 98.0865 62.0916 98.0865 65.0953Z" fill="#FFDE00"/>
<path d="M94.0876 64.37C94.0876 66.435 85.8864 68.1118 75.769 68.1118C65.6517 68.1118 57.4504 66.435 57.4504 64.37C57.4504 62.3049 65.6517 60.6282 75.769 60.6282C85.8864 60.6282 94.0876 62.3049 94.0876 64.37Z" fill="#FFD000"/>
<path d="M58.0151 65.2915C60.0238 63.6702 67.2114 62.4713 75.7737 62.4713C84.3359 62.4713 91.5236 63.6702 93.5323 65.2915C93.8979 64.9972 94.0923 64.69 94.0923 64.37C94.0923 62.3049 85.891 60.6282 75.7737 60.6282C65.6563 60.6282 57.4551 62.3049 57.4551 64.37C57.4551 64.6857 57.6495 64.9972 58.0151 65.2915Z" fill="#F8AB08"/>
<path d="M54.7151 68.1118V73.8674C54.4605 73.6668 54.2384 73.462 54.0625 73.2573V68.1118H54.7151Z" fill="#F8AB08"/>
<path d="M56.7607 69.8013V75.045C56.5293 74.9468 56.3118 74.8402 56.1035 74.7335V69.8013H56.7607Z" fill="#F8AB08"/>
<path d="M59.223 70.8381V75.9494C59.0009 75.8854 58.7833 75.8129 58.5704 75.7446V70.8423H59.223V70.8381Z" fill="#F8AB08"/>
<path d="M61.8704 71.5336V76.6321C61.6528 76.5852 61.4353 76.5383 61.2224 76.4871V71.5378H61.8704V71.5336Z" fill="#F8AB08"/>
<path d="M64.2863 72.1992V77.0972C64.0641 77.0631 63.8512 77.0289 63.6383 76.9863V72.1992H64.2863Z" fill="#F8AB08"/>
<path d="M67.1234 72.6386V77.494C66.9059 77.4641 66.6884 77.4428 66.4708 77.4129V72.6386H67.1234Z" fill="#F8AB08"/>
<path d="M69.5903 72.6386V77.7286C69.3682 77.7116 69.1506 77.6945 68.9331 77.6774V72.6386H69.5903Z" fill="#F8AB08"/>
<path d="M72.9828 72.6386V77.9249C72.7653 77.9206 72.5477 77.9078 72.3302 77.8993V72.6386H72.9828Z" fill="#F8AB08"/>
<path d="M76.889 72.1992V77.9676C76.6715 77.9676 76.4586 77.9718 76.2411 77.9718V72.1992H76.889Z" fill="#F8AB08"/>
<path d="M80.5129 71.5336V77.831C80.2954 77.8481 80.0825 77.8609 79.8604 77.8737V71.5336H80.5129Z" fill="#F8AB08"/>
<path d="M83.4426 71.5336V77.6006C83.2251 77.6177 83.0122 77.6433 82.7947 77.6604V71.5336H83.4426Z" fill="#F8AB08"/>
<path d="M87.3026 70.8381V77.0886C87.0897 77.1227 86.8722 77.1611 86.65 77.1953V70.8381H87.3026Z" fill="#F8AB08"/>
<path d="M91.4355 70.1725V76.2012C91.2226 76.2609 91.0098 76.3206 90.7876 76.3761V70.1725H91.4355Z" fill="#F8AB08"/>
<path d="M94.7401 68.5555V75.0705C94.5318 75.1601 94.3189 75.254 94.0875 75.3393V68.5512H94.7401V68.5555Z" fill="#F8AB08"/>
<path d="M97.0636 67.4462V73.6754C96.8738 73.8418 96.6563 74.0039 96.411 74.1703V67.4462H97.0636Z" fill="#F8AB08"/>
<path d="M97.0636 70.6973C96.8738 70.8637 96.6563 71.0258 96.411 71.1922C95.9436 71.5037 95.3789 71.8066 94.7356 72.0925C94.5273 72.1821 94.3144 72.2759 94.083 72.3655C93.2962 72.677 92.4076 72.9671 91.431 73.2231C91.2181 73.2828 91.0052 73.3426 90.7831 73.398C89.7093 73.6626 88.543 73.9058 87.2934 74.1106C87.0805 74.1447 86.8629 74.1831 86.6408 74.2172C85.6179 74.3708 84.5488 74.5116 83.4288 74.6225C83.2113 74.6396 82.9984 74.6652 82.7808 74.6823C82.0357 74.7548 81.2766 74.806 80.4991 74.8529C80.2816 74.87 80.0687 74.8828 79.8465 74.8956C78.8746 74.9425 77.8841 74.9724 76.8706 74.9895C76.653 74.9895 76.4401 74.9937 76.2226 74.9937H75.7551C74.811 74.9937 73.8807 74.9767 72.9643 74.9468C72.7468 74.9425 72.5293 74.9297 72.3117 74.9212C71.3768 74.8785 70.4651 74.8231 69.5718 74.7505C69.3497 74.7335 69.1321 74.7164 68.9146 74.6993C68.299 74.6481 67.6927 74.5799 67.105 74.5159C66.8874 74.486 66.6699 74.4647 66.4524 74.4348C65.7026 74.341 64.9667 74.2343 64.2678 74.1148C64.0457 74.0807 63.8328 74.0466 63.6199 74.0039C63.0043 73.8972 62.4165 73.782 61.8473 73.6498C61.6297 73.6028 61.4122 73.5559 61.1993 73.5047C60.4912 73.3383 59.8247 73.1634 59.1999 72.9671C58.9778 72.9031 58.7602 72.8306 58.5473 72.7623C57.8855 72.5447 57.2792 72.3143 56.7377 72.0669C56.5063 71.9687 56.2887 71.8621 56.0805 71.7554C55.539 71.4781 55.0715 71.1922 54.692 70.8893C54.4374 70.6888 54.2153 70.484 54.0394 70.2792C53.646 69.8184 53.4377 69.3448 53.4377 68.8541V71.8322C53.4377 72.3186 53.646 72.7964 54.0394 73.2572C54.2199 73.462 54.4374 73.6668 54.692 73.8674C55.0761 74.166 55.539 74.4561 56.0805 74.7335C56.2887 74.8401 56.5063 74.9468 56.7377 75.0449C57.2792 75.2924 57.8855 75.5228 58.5473 75.7404C58.7602 75.8129 58.9731 75.8812 59.1999 75.9452C59.8294 76.1372 60.4958 76.3164 61.1993 76.4828C61.4122 76.534 61.6251 76.5809 61.8473 76.6278C62.4165 76.7558 63.0043 76.8753 63.6199 76.982C63.8328 77.0246 64.0457 77.0588 64.2678 77.0929C64.9713 77.2124 65.7026 77.3148 66.4524 77.4086C66.6699 77.4385 66.8828 77.4598 67.105 77.4897C67.6974 77.5537 68.299 77.6177 68.9146 77.6731C69.1321 77.6902 69.3497 77.7073 69.5718 77.7243C70.4651 77.7969 71.3768 77.8566 72.3117 77.895C72.5293 77.8993 72.7422 77.9121 72.9643 77.9206C73.8807 77.9505 74.811 77.9675 75.7551 77.9675H76.2226C76.4401 77.9675 76.6577 77.9633 76.8706 77.9633C77.8841 77.9462 78.8746 77.9163 79.8465 77.8694C80.064 77.8566 80.2816 77.8438 80.4991 77.8267C81.2766 77.7798 82.0357 77.7243 82.7808 77.6561C82.9937 77.639 83.2113 77.6134 83.4288 77.5963C84.5442 77.4854 85.6133 77.3446 86.6408 77.191C86.8583 77.1569 87.0805 77.1185 87.2934 77.0844C88.543 76.8796 89.7047 76.6364 90.7831 76.3718C91.0006 76.3121 91.2181 76.2524 91.431 76.1969C92.4076 75.9366 93.2962 75.6508 94.083 75.3351C94.3098 75.2455 94.5273 75.1516 94.7356 75.0663C95.3789 74.7761 95.9436 74.4775 96.411 74.166C96.6517 73.9996 96.8738 73.8375 97.0636 73.6711C97.7301 73.0866 98.0864 72.4722 98.0864 71.8279V68.8499C98.0864 69.4898 97.7301 70.1085 97.0636 70.693V70.6973Z" fill="#EBDEDE"/>
<path d="M96.1657 56.9077V63.6488C96.1657 64.2888 95.8093 64.9075 95.1429 65.492C94.9531 65.6584 94.7356 65.8205 94.4903 65.9869C94.0228 66.2984 93.4582 66.5971 92.8148 66.8872C92.6066 66.9768 92.389 67.0706 92.1623 67.156C91.3801 67.4674 90.4868 67.7576 89.5103 68.0178C89.2974 68.0776 89.0845 68.1373 88.8623 68.1928C87.7886 68.4573 86.6222 68.7005 85.3726 68.9053C85.1597 68.9394 84.9422 68.9778 84.72 69.0119C83.6972 69.1655 82.6281 69.3063 81.508 69.4173C81.2905 69.4343 81.0776 69.4599 80.8601 69.477C80.1149 69.5495 79.3559 69.6007 78.5784 69.6477C78.3608 69.6647 78.1479 69.6775 77.9258 69.6903C76.9538 69.7373 75.9634 69.7671 74.9498 69.7842C74.7369 69.7842 74.5194 69.7885 74.2972 69.7885H73.8344C72.8902 69.7885 71.96 69.7714 71.0436 69.7415C70.826 69.7373 70.6085 69.7245 70.391 69.7202C69.4561 69.6775 68.5443 69.6221 67.6511 69.5495C67.4335 69.5325 67.2114 69.5154 66.9985 69.4983C66.3829 69.4471 65.7766 69.3789 65.1888 69.3149C64.9713 69.285 64.7538 69.2637 64.5363 69.2338C63.7865 69.1399 63.0506 69.0333 62.3517 68.9138C62.1342 68.8797 61.9167 68.8455 61.7038 68.8029C61.0882 68.6962 60.5004 68.581 59.9358 68.4488C59.7183 68.4018 59.5007 68.3549 59.2878 68.3037C58.5797 68.1373 57.9132 67.9624 57.2884 67.7661C57.0663 67.7021 56.8487 67.6296 56.6358 67.5613C55.974 67.3437 55.3677 67.1133 54.8262 66.8659C54.5948 66.7677 54.3819 66.6611 54.1736 66.5544C53.6321 66.2771 53.1647 65.9912 52.7851 65.6883C52.5306 65.4878 52.3084 65.283 52.1326 65.0782C51.7392 64.6174 51.5309 64.1438 51.5309 63.6531V56.9119H96.1611L96.1657 56.9077Z" fill="#FDC400"/>
<path d="M96.1657 56.9119C96.1657 59.9156 86.1733 62.3518 73.8529 62.3518C61.5325 62.3518 51.5355 59.9156 51.5355 56.9119C51.5355 53.9083 61.5279 51.472 73.8529 51.472C86.178 51.472 96.1657 53.9083 96.1657 56.9119Z" fill="#FFDE00"/>
<path d="M92.1669 56.1866C92.1669 58.2516 83.9656 59.9284 73.8483 59.9284C63.7309 59.9284 55.5297 58.2516 55.5297 56.1866C55.5297 54.1216 63.7309 52.4448 73.8483 52.4448C83.9656 52.4448 92.1669 54.1216 92.1669 56.1866Z" fill="#FFD000"/>
<path d="M56.0897 57.1082C58.0983 55.4869 65.286 54.288 73.8483 54.288C82.4105 54.288 89.5982 55.4869 91.6068 57.1082C91.9725 56.8138 92.1669 56.5066 92.1669 56.1909C92.1669 54.1259 83.9656 52.4491 73.8483 52.4491C63.7309 52.4491 55.5297 54.1259 55.5297 56.1909C55.5297 56.5066 55.724 56.8181 56.0897 57.1082Z" fill="#F8AB08"/>
<path d="M52.7898 59.9284V65.684C52.5352 65.4835 52.3131 65.2787 52.1372 65.0739V59.9284H52.7898Z" fill="#F8AB08"/>
<path d="M54.8354 61.618V66.8616C54.604 66.7635 54.3911 66.6568 54.1829 66.5501V61.618H54.8354Z" fill="#F8AB08"/>
<path d="M57.2977 62.6548V67.7661C57.0756 67.7021 56.858 67.6296 56.6451 67.5614V62.659H57.2977V62.6548Z" fill="#F8AB08"/>
<path d="M59.9451 63.3502V68.4488C59.7276 68.4019 59.51 68.3549 59.2971 68.3037V63.3545H59.9451V63.3502Z" fill="#F8AB08"/>
<path d="M62.3656 64.0158V68.9138C62.1481 68.8797 61.9306 68.8456 61.7177 68.8029V64.0158H62.3656Z" fill="#F8AB08"/>
<path d="M65.2028 64.4553V69.3106C64.9852 69.2808 64.7677 69.2594 64.5502 69.2296V64.4553H65.2028Z" fill="#F8AB08"/>
<path d="M67.6696 64.4553V69.5453C67.452 69.5282 67.2299 69.5112 67.017 69.4941V64.4553H67.6696Z" fill="#F8AB08"/>
<path d="M71.0621 64.4553V69.7416C70.8446 69.7373 70.6271 69.7245 70.4095 69.7202V64.4595H71.0621V64.4553Z" fill="#F8AB08"/>
<path d="M74.9637 64.0158V69.7842C74.7508 69.7842 74.5333 69.7885 74.3112 69.7885V64.0115H74.9637V64.0158Z" fill="#F8AB08"/>
<path d="M78.5923 63.3502V69.6477C78.3748 69.6648 78.1619 69.6776 77.9397 69.6904V63.3502H78.5923Z" fill="#F8AB08"/>
<path d="M81.5173 63.3502V69.4173C81.2998 69.4344 81.0869 69.46 80.8694 69.477V63.3502H81.5173Z" fill="#F8AB08"/>
<path d="M85.3819 62.6548V68.9053C85.169 68.9395 84.9515 68.9779 84.7294 69.012V62.6548H85.3819Z" fill="#F8AB08"/>
<path d="M89.5149 61.9891V68.0178C89.302 68.0776 89.0891 68.1373 88.8669 68.1927V61.9891H89.5149Z" fill="#F8AB08"/>
<path d="M92.8195 60.3721V66.8872C92.6112 66.9768 92.3937 67.0707 92.1669 67.156V60.3679H92.8195V60.3721Z" fill="#F8AB08"/>
<path d="M95.1428 59.2628V65.492C94.9531 65.6584 94.7355 65.8206 94.4902 65.987V59.2671H95.1428V59.2628Z" fill="#F8AB08"/>
<path d="M95.1429 62.514C94.9531 62.6804 94.7356 62.8425 94.4903 63.0089C94.0228 63.3204 93.4582 63.6233 92.8148 63.9092C92.6066 63.9988 92.389 64.0926 92.1623 64.178C91.3801 64.4894 90.4868 64.7795 89.5103 65.0398C89.2974 65.0995 89.0845 65.1593 88.8623 65.2147C87.7886 65.4793 86.6222 65.7225 85.3726 65.9273C85.1597 65.9614 84.9422 65.9998 84.72 66.0339C83.6972 66.1875 82.6281 66.3283 81.508 66.4392C81.2905 66.4563 81.0776 66.4819 80.8601 66.499C80.1149 66.5672 79.3559 66.6227 78.5784 66.6696C78.3608 66.6867 78.1479 66.6995 77.9258 66.7123C76.9538 66.7592 75.9634 66.7891 74.9498 66.8062C74.7369 66.8062 74.5194 66.8104 74.2972 66.8104H73.8344C72.8902 66.8104 71.96 66.7934 71.0436 66.7635C70.826 66.7592 70.6085 66.7464 70.391 66.7379C69.4561 66.6952 68.5443 66.6398 67.6511 66.5672C67.4335 66.5502 67.2114 66.5331 66.9985 66.516C66.3829 66.4648 65.7766 66.3966 65.1888 66.3326C64.9713 66.3027 64.7538 66.2814 64.5363 66.2515C63.7865 66.1577 63.0506 66.051 62.3517 65.9315C62.1342 65.8974 61.9167 65.859 61.7038 65.8206C61.0882 65.7139 60.5004 65.5987 59.9358 65.4665C59.7183 65.4195 59.5007 65.3726 59.2878 65.3171C58.5797 65.1507 57.9132 64.9758 57.2884 64.7795C57.0663 64.7155 56.8487 64.643 56.6358 64.5748C55.974 64.3572 55.3677 64.1268 54.8262 63.8793C54.5948 63.7812 54.3819 63.6745 54.1736 63.5678C53.6321 63.2905 53.1647 63.0004 52.7851 62.7017C52.5306 62.5012 52.3084 62.2964 52.1326 62.0916C51.7392 61.6308 51.5309 61.1572 51.5309 60.6666V63.6446C51.5309 64.131 51.7392 64.6089 52.1326 65.0697C52.3131 65.2745 52.5306 65.4793 52.7851 65.6798C53.1693 65.9785 53.6321 66.2686 54.1736 66.5459C54.3819 66.6526 54.5994 66.7592 54.8262 66.8574C55.3677 67.1048 55.974 67.3352 56.6358 67.5528C56.8487 67.6254 57.0616 67.6936 57.2884 67.7576C57.9179 67.9539 58.5843 68.1288 59.2878 68.2952C59.5007 68.3464 59.7136 68.3933 59.9358 68.4403C60.5051 68.5683 61.0928 68.6877 61.7038 68.7944C61.9167 68.8371 62.1296 68.8712 62.3517 68.9053C63.0552 69.0248 63.7865 69.1272 64.5363 69.2253C64.7492 69.2552 64.9667 69.2765 65.1888 69.3064C65.7813 69.3704 66.3829 69.4344 66.9985 69.4899C67.216 69.5069 67.4335 69.524 67.6511 69.5411C68.5443 69.6136 69.4561 69.6691 70.391 69.7117C70.6085 69.716 70.8214 69.7288 71.0436 69.7331C71.96 69.7629 72.8902 69.78 73.8344 69.78H74.2972C74.5148 69.78 74.7323 69.7757 74.9498 69.7757C75.9634 69.7586 76.9538 69.7288 77.9258 69.6819C78.1433 69.6691 78.3608 69.6563 78.5784 69.6392C79.3559 69.5923 80.1149 69.5411 80.8601 69.4685C81.0776 69.4515 81.2905 69.4259 81.508 69.4088C82.6234 69.2979 83.6972 69.1571 84.72 69.0035C84.9376 68.9693 85.1597 68.9309 85.3726 68.8968C86.6222 68.692 87.7886 68.4488 88.8623 68.1843C89.0798 68.1245 89.2974 68.0648 89.5103 68.0093C90.4868 67.7491 91.3755 67.4632 92.1623 67.1475C92.389 67.0579 92.6066 66.964 92.8148 66.8787C93.4582 66.5886 94.0182 66.2899 94.4903 65.9785C94.7309 65.8121 94.9531 65.6499 95.1429 65.4835C95.8093 64.899 96.1657 64.2846 96.1657 63.6404V60.6623C96.1657 61.3023 95.8093 61.9209 95.1429 62.5055V62.514Z" fill="#EBDEDE"/>
<path d="M98.0864 48.319V55.0602C98.0864 55.7002 97.7301 56.3189 97.0636 56.9034C96.8738 57.0655 96.6563 57.2319 96.411 57.3983C95.9436 57.7098 95.3789 58.0127 94.7356 58.2986C94.5273 58.3882 94.3144 58.482 94.083 58.5716C93.2962 58.8831 92.4076 59.1732 91.431 59.4292C91.2181 59.4889 91.0052 59.5487 90.7831 59.6084C89.7093 59.8729 88.543 60.1161 87.2934 60.3209C87.0805 60.3551 86.8629 60.3935 86.6408 60.4276C85.6179 60.5812 84.5488 60.722 83.4288 60.8329C83.2113 60.85 82.9984 60.8756 82.7808 60.8926C82.0357 60.9652 81.2766 61.0164 80.4991 61.0633C80.2816 61.0804 80.0687 61.0932 79.8465 61.106C78.8746 61.1529 77.8841 61.1828 76.8706 61.1998C76.653 61.1998 76.4401 61.2041 76.2226 61.2041H75.7551C74.811 61.2041 73.8807 61.187 72.9643 61.1572C72.7468 61.1529 72.5293 61.1401 72.3117 61.1316C71.3768 61.0889 70.4651 61.0334 69.5718 60.9609C69.3497 60.9438 69.1321 60.9268 68.9146 60.9097C68.299 60.8585 67.6927 60.7902 67.105 60.7263C66.8874 60.6964 66.6699 60.6751 66.4524 60.6452C65.7026 60.5513 64.9667 60.4447 64.2678 60.3252C64.0457 60.2911 63.8328 60.2569 63.6199 60.2143C63.0043 60.1076 62.4165 59.9924 61.8473 59.8601C61.6297 59.8132 61.4122 59.7663 61.1993 59.7151C60.4912 59.5487 59.8247 59.3737 59.1999 59.1775C58.9778 59.1135 58.7602 59.041 58.5473 58.9727C57.8855 58.7551 57.2792 58.5247 56.7377 58.2772C56.5063 58.1791 56.2887 58.0724 56.0805 57.9658C55.539 57.6884 55.0715 57.4026 54.692 57.0997C54.4374 56.8991 54.2153 56.6943 54.0394 56.4895C53.646 56.0287 53.4377 55.5552 53.4377 55.0645V48.3233H98.0679L98.0864 48.319Z" fill="#FDC400"/>
<path d="M98.0865 48.319C98.0865 51.3227 88.0941 53.7589 75.7691 53.7589C63.444 53.7589 53.4517 51.3227 53.4517 48.319C53.4517 45.3154 63.444 42.8792 75.7691 42.8792C88.0941 42.8792 98.0865 45.3154 98.0865 48.319Z" fill="#FFDE00"/>
<path d="M94.0876 47.5937C94.0876 49.6587 85.8864 51.3355 75.769 51.3355C65.6517 51.3355 57.4504 49.663 57.4504 47.5937C57.4504 45.5244 65.6517 43.8519 75.769 43.8519C85.8864 43.8519 94.0876 45.5287 94.0876 47.5937Z" fill="#FFD000"/>
<path d="M58.0151 48.5153C60.0238 46.894 67.2114 45.6951 75.7737 45.6951C84.3359 45.6951 91.5236 46.894 93.5323 48.5153C93.8979 48.2209 94.0923 47.9137 94.0923 47.5937C94.0923 45.5287 85.891 43.8519 75.7737 43.8519C65.6563 43.8519 57.4551 45.5287 57.4551 47.5937C57.4551 47.9095 57.6495 48.2209 58.0151 48.5153Z" fill="#F8AB08"/>
<path d="M54.7151 51.3355V57.0911C54.4605 56.8906 54.2384 56.6858 54.0625 56.481V51.3355H54.7151Z" fill="#F8AB08"/>
<path d="M56.7607 53.0251V58.2687C56.5293 58.1706 56.3118 58.0639 56.1035 57.9573V53.0251H56.7607Z" fill="#F8AB08"/>
<path d="M59.223 54.0618V59.1732C59.0009 59.1092 58.7833 59.0367 58.5704 58.9684V54.0661H59.223V54.0618Z" fill="#F8AB08"/>
<path d="M61.8704 54.7573V59.8559C61.6528 59.809 61.4353 59.762 61.2224 59.7108V54.7616H61.8704V54.7573Z" fill="#F8AB08"/>
<path d="M64.2863 55.4229V60.321C64.0641 60.2868 63.8512 60.2527 63.6383 60.21V55.4229H64.2863Z" fill="#F8AB08"/>
<path d="M67.1234 55.8624V60.7177C66.9059 60.6879 66.6884 60.6665 66.4708 60.6367V55.8624H67.1234Z" fill="#F8AB08"/>
<path d="M69.5903 55.8624V60.9524C69.3682 60.9353 69.1506 60.9183 68.9331 60.9012V55.8624H69.5903Z" fill="#F8AB08"/>
<path d="M72.9828 55.8624V61.1487C72.7653 61.1444 72.5477 61.1316 72.3302 61.1231V55.8624H72.9828Z" fill="#F8AB08"/>
<path d="M76.889 55.4229V61.1913C76.6715 61.1913 76.4586 61.1956 76.2411 61.1956V55.4229H76.889Z" fill="#F8AB08"/>
<path d="M80.5129 54.7573V61.0548C80.2954 61.0719 80.0825 61.0847 79.8604 61.0975V54.7573H80.5129Z" fill="#F8AB08"/>
<path d="M83.4426 54.7573V60.8244C83.2251 60.8415 83.0122 60.8671 82.7947 60.8841V54.7573H83.4426Z" fill="#F8AB08"/>
<path d="M87.3026 54.0618V60.3124C87.0897 60.3465 86.8722 60.3849 86.65 60.419V54.0618H87.3026Z" fill="#F8AB08"/>
<path d="M91.4355 53.3962V59.4249C91.2226 59.4847 91.0098 59.5444 90.7876 59.6041V53.4005H91.4355V53.3962Z" fill="#F8AB08"/>
<path d="M94.7401 51.7792V58.2943C94.5318 58.3839 94.3189 58.4778 94.0875 58.5674V51.7792H94.7401Z" fill="#F8AB08"/>
<path d="M97.0636 50.6699V56.8991C96.8738 57.0613 96.6563 57.2277 96.411 57.3941V50.6699H97.0636Z" fill="#F8AB08"/>
<path d="M97.0636 53.921C96.8738 54.0874 96.6563 54.2496 96.411 54.416C95.9436 54.7274 95.3789 55.0261 94.7356 55.3162C94.5273 55.4058 94.3144 55.4997 94.083 55.5893C93.2962 55.9007 92.4076 56.1909 91.431 56.4511C91.2181 56.5109 91.0052 56.5663 90.7831 56.6261C89.7093 56.8906 88.543 57.1338 87.2934 57.3386C87.0805 57.3727 86.8629 57.4068 86.6408 57.4452C85.6179 57.5988 84.5488 57.7396 83.4288 57.8506C83.2113 57.8676 82.9984 57.8932 82.7808 57.9103C82.0357 57.9786 81.2766 58.034 80.4991 58.081C80.2816 58.098 80.0687 58.1108 79.8465 58.1236C78.8746 58.1706 77.8841 58.2004 76.8706 58.2175C76.653 58.2175 76.4401 58.2218 76.2226 58.2218H75.7551C74.811 58.2218 73.8807 58.2047 72.9643 58.1748C72.7468 58.1706 72.5293 58.1578 72.3117 58.1492C71.3768 58.1066 70.4651 58.0511 69.5718 57.9786C69.3497 57.9615 69.1321 57.9444 68.9146 57.9274C68.299 57.8762 67.6927 57.8079 67.105 57.7439C66.8874 57.714 66.6699 57.6927 66.4524 57.6628C65.7026 57.569 64.9667 57.4623 64.2678 57.3471C64.0457 57.313 63.8328 57.2746 63.6199 57.2362C63.0043 57.1295 62.4165 57.0143 61.8473 56.8821C61.6297 56.8351 61.4122 56.7882 61.1993 56.7327C60.4912 56.5663 59.8247 56.3914 59.1999 56.1994C58.9778 56.1354 58.7602 56.0629 58.5473 55.9946C57.8855 55.777 57.2792 55.5466 56.7377 55.2992C56.5063 55.201 56.2887 55.0944 56.0805 54.9877C55.539 54.7104 55.0715 54.4245 54.692 54.1216C54.4374 53.921 54.2153 53.7163 54.0394 53.5115C53.646 53.0507 53.4377 52.5771 53.4377 52.0864V55.0645C53.4377 55.5552 53.646 56.0287 54.0394 56.4895C54.2199 56.6943 54.4374 56.9034 54.692 57.0997C55.0761 57.3983 55.539 57.6884 56.0805 57.9658C56.2887 58.0724 56.5063 58.1791 56.7377 58.2772C57.2792 58.5247 57.8855 58.7551 58.5473 58.9727C58.7602 59.0452 58.9731 59.1135 59.1999 59.1775C59.8294 59.3737 60.4958 59.5487 61.1993 59.7151C61.4122 59.7663 61.6251 59.8132 61.8473 59.8601C62.4165 59.9881 63.0043 60.1076 63.6199 60.2143C63.8328 60.2569 64.0457 60.2911 64.2678 60.3252C64.9713 60.4447 65.7026 60.5471 66.4524 60.6452C66.6699 60.675 66.8828 60.6964 67.105 60.7262C67.6974 60.7902 68.299 60.8542 68.9146 60.9097C69.1321 60.9268 69.3497 60.9438 69.5718 60.9609C70.4651 61.0334 71.3768 61.0889 72.3117 61.1316C72.5293 61.1401 72.7422 61.1486 72.9643 61.1572C73.8807 61.187 74.811 61.2041 75.7551 61.2041H76.2226C76.4401 61.2041 76.6577 61.1998 76.8706 61.1998C77.8841 61.1828 78.8746 61.1529 79.8465 61.106C80.064 61.0932 80.2816 61.0804 80.4991 61.0633C81.2766 61.0164 82.0357 60.9652 82.7808 60.8926C82.9937 60.8756 83.2113 60.85 83.4288 60.8329C84.5442 60.722 85.6133 60.5812 86.6408 60.4276C86.8583 60.3935 87.0805 60.3551 87.2934 60.3209C88.543 60.1161 89.7047 59.8729 90.7831 59.6084C91.0006 59.5487 91.2181 59.4889 91.431 59.4292C92.4076 59.1689 93.2962 58.8831 94.083 58.5716C94.3098 58.482 94.5273 58.3882 94.7356 58.2986C95.3789 58.0127 95.9436 57.7098 96.411 57.3983C96.6517 57.2319 96.8738 57.0698 97.0636 56.9034C97.7301 56.3189 98.0864 55.7002 98.0864 55.0602V52.0822C98.0864 52.7221 97.7301 53.3408 97.0636 53.9253V53.921Z" fill="#EBDEDE"/>
<path d="M100.488 40.1357V46.8769C100.488 47.5169 100.132 48.1356 99.4656 48.7201C99.2759 48.8865 99.0537 49.0486 98.813 49.215C98.3456 49.5265 97.7809 49.8294 97.1376 50.1153C96.9293 50.2049 96.7118 50.2987 96.485 50.3883C95.6982 50.6998 94.8096 50.9899 93.833 51.2502C93.6202 51.3099 93.4072 51.3697 93.1851 51.4251C92.1113 51.6896 90.945 51.9328 89.6954 52.1376C89.4825 52.1718 89.265 52.2102 89.0428 52.2443C88.02 52.3979 86.9508 52.5387 85.8354 52.6496C85.6179 52.6667 85.405 52.6923 85.1875 52.7094C84.4423 52.7776 83.6833 52.8331 82.9058 52.88C82.6929 52.8971 82.4753 52.9099 82.2578 52.9227C81.2859 52.9696 80.2954 52.9995 79.2818 53.0166C79.0643 53.0166 78.8514 53.0208 78.6339 53.0208H78.1711C77.2269 53.0208 76.2966 53.0038 75.3802 52.9739C75.1627 52.9696 74.9452 52.9568 74.7277 52.9483C73.7927 52.9056 72.881 52.8502 71.9877 52.7776C71.7702 52.7606 71.548 52.7435 71.3351 52.7264C70.7196 52.6752 70.1133 52.607 69.5255 52.543C69.308 52.5131 69.0904 52.4918 68.8729 52.4619C68.1231 52.368 67.3919 52.2614 66.6884 52.1419C66.4709 52.1078 66.2533 52.0736 66.0404 52.031C65.4249 51.9243 64.8371 51.8091 64.2678 51.6768C64.0503 51.6299 63.8328 51.583 63.6199 51.5275C62.9117 51.3611 62.2453 51.1862 61.6205 50.9899C61.3983 50.9259 61.1808 50.8534 60.9679 50.7851C60.306 50.5675 59.6997 50.3371 59.1582 50.0897C58.9268 49.9915 58.7139 49.8849 58.5056 49.7782C57.9641 49.5009 57.4967 49.2108 57.1172 48.9121C56.858 48.7116 56.6405 48.5068 56.4646 48.302C56.0712 47.8412 55.8629 47.3676 55.8629 46.8769V40.1357H100.493H100.488Z" fill="#FDC400"/>
<path d="M100.488 40.1358C100.488 43.1394 90.4961 45.5756 78.171 45.5756C65.846 45.5756 55.8536 43.1394 55.8536 40.1358C55.8536 37.1321 65.846 34.6959 78.171 34.6959C90.4961 34.6959 100.488 37.1321 100.488 40.1358Z" fill="#FFDE00"/>
<path d="M96.4943 39.4147C96.4943 41.4797 88.293 43.1565 78.1757 43.1565C68.0583 43.1565 59.8571 41.4797 59.8571 39.4147C59.8571 37.3497 68.0583 35.6729 78.1757 35.6729C88.293 35.6729 96.4943 37.3497 96.4943 39.4147Z" fill="#FFD000"/>
<path d="M60.4171 40.332C62.4257 38.7107 69.6134 37.5118 78.1757 37.5118C86.7379 37.5118 93.9256 38.7107 95.9342 40.332C96.2999 40.0376 96.4943 39.7304 96.4943 39.4147C96.4943 37.3497 88.293 35.6729 78.1757 35.6729C68.0583 35.6729 59.8571 37.3497 59.8571 39.4147C59.8571 39.7304 60.0514 40.0419 60.4171 40.332Z" fill="#F8AB08"/>
<path d="M57.1172 43.1522V48.9078C56.858 48.7073 56.6405 48.5025 56.4646 48.2977V43.1522H57.1172Z" fill="#F8AB08"/>
<path d="M59.1628 44.8418V50.0854C58.9314 49.9873 58.7185 49.8806 58.5103 49.774V44.8418H59.1628Z" fill="#F8AB08"/>
<path d="M61.6251 45.8785V50.9899C61.403 50.9259 61.1854 50.8534 60.9725 50.7851V45.8828H61.6251V45.8785Z" fill="#F8AB08"/>
<path d="M64.2725 46.574V51.6726C64.0549 51.6257 63.8374 51.5787 63.6245 51.5233V46.574H64.2725Z" fill="#F8AB08"/>
<path d="M66.6884 47.2396V52.1377C66.4708 52.1035 66.2533 52.0694 66.0404 52.0267V47.2396H66.6884Z" fill="#F8AB08"/>
<path d="M69.5301 47.6791V52.5344C69.3126 52.5046 69.0951 52.4832 68.8776 52.4534V47.6791H69.5301Z" fill="#F8AB08"/>
<path d="M71.9924 47.6791V52.7691C71.7749 52.752 71.5527 52.735 71.3398 52.7179V47.6791H71.9924Z" fill="#F8AB08"/>
<path d="M75.3849 47.6791V52.9654C75.1674 52.9611 74.9498 52.9483 74.7323 52.9398V47.6791H75.3849Z" fill="#F8AB08"/>
<path d="M79.2911 47.2396V53.008C79.0736 53.008 78.8607 53.0123 78.6432 53.0123V47.2396H79.2911Z" fill="#F8AB08"/>
<path d="M82.915 46.574V52.8715C82.7021 52.8886 82.4846 52.9014 82.2671 52.9142V46.574H82.915Z" fill="#F8AB08"/>
<path d="M85.8447 46.574V52.6411C85.6272 52.6582 85.4143 52.6838 85.1968 52.7008V46.574H85.8447Z" fill="#F8AB08"/>
<path d="M89.7047 45.8785V52.1291C89.4918 52.1632 89.2743 52.2016 89.0521 52.2357V45.8785H89.7047Z" fill="#F8AB08"/>
<path d="M93.8423 45.213V51.2416C93.6294 51.3014 93.4165 51.3611 93.1943 51.4166V45.213H93.8423Z" fill="#F8AB08"/>
<path d="M97.1422 43.5959V50.111C96.9339 50.2006 96.7164 50.2945 96.4896 50.3841V43.5959H97.1422Z" fill="#F8AB08"/>
<path d="M99.4702 42.4866V48.7158C99.2805 48.8822 99.0583 49.0444 98.8176 49.2108V42.4909H99.4702V42.4866Z" fill="#F8AB08"/>
<path d="M99.4704 45.7378C99.2806 45.9042 99.0585 46.0663 98.8178 46.2327C98.3503 46.5441 97.7857 46.8428 97.1424 47.1329C96.9341 47.2225 96.7166 47.3164 96.4898 47.4017C95.703 47.7132 94.8144 48.0033 93.8378 48.2593C93.6249 48.319 93.412 48.3788 93.1899 48.4342C92.1161 48.6988 90.9498 48.942 89.7002 49.1468C89.4873 49.1809 89.2697 49.2193 89.0476 49.2534C88.0247 49.407 86.9556 49.5478 85.8402 49.6587C85.6227 49.6758 85.4098 49.7014 85.1923 49.7185C84.4471 49.7867 83.6881 49.8422 82.9105 49.8891C82.6976 49.9062 82.4801 49.919 82.2626 49.9318C81.2906 49.9787 80.3002 50.0086 79.2866 50.0257C79.0691 50.0257 78.8562 50.0299 78.6387 50.0299H78.1758C77.2317 50.0299 76.3014 50.0129 75.385 49.983C75.1675 49.9787 74.9499 49.9659 74.7324 49.9617C73.7975 49.919 72.8857 49.8635 71.9925 49.791C71.775 49.7739 71.5528 49.7569 71.3399 49.7398C70.7243 49.6886 70.118 49.6203 69.5303 49.5563C69.3127 49.5265 69.0952 49.5051 68.8777 49.4753C68.1279 49.3814 67.3966 49.2748 66.6931 49.1553C66.4756 49.1212 66.2581 49.087 66.0452 49.0444C65.4296 48.9377 64.8418 48.8225 64.2726 48.6902C64.055 48.6433 63.8375 48.5964 63.6246 48.5452C62.9165 48.3788 62.25 48.2038 61.6252 48.0076C61.4031 47.9436 61.1855 47.871 60.9726 47.8028C60.3108 47.5852 59.7045 47.3548 59.163 47.1073C58.9316 47.0092 58.7187 46.9025 58.5104 46.7959C57.9689 46.5185 57.5014 46.2327 57.1219 45.9298C56.8627 45.7292 56.6452 45.5244 56.4693 45.3196C56.0759 44.8588 55.8677 44.3852 55.8677 43.8946V46.8727C55.8677 47.3633 56.0759 47.8369 56.4693 48.2977C56.6499 48.5025 56.8674 48.7073 57.1219 48.9078C57.5061 49.2065 57.9689 49.4966 58.5104 49.7739C58.7187 49.8806 58.9362 49.9873 59.163 50.0854C59.7045 50.3329 60.3108 50.5633 60.9726 50.7809C61.1855 50.8491 61.3984 50.9217 61.6252 50.9857C62.2547 51.1819 62.9211 51.3568 63.6246 51.5232C63.8375 51.5744 64.0504 51.6256 64.2726 51.6726C64.8418 51.8006 65.4296 51.92 66.0452 52.0267C66.2581 52.0694 66.471 52.1035 66.6931 52.1376C67.3966 52.2571 68.1279 52.3638 68.8777 52.4576C69.0952 52.4875 69.3081 52.5088 69.5303 52.5387C70.1227 52.6027 70.7243 52.6667 71.3399 52.7222C71.5574 52.7392 71.775 52.7563 71.9925 52.7734C72.8857 52.8459 73.8021 52.9013 74.7324 52.944C74.9499 52.9483 75.1628 52.9611 75.385 52.9696C76.3014 52.9995 77.2317 53.0165 78.1758 53.0165H78.6387C78.8562 53.0165 79.0737 53.0123 79.2866 53.0123C80.3002 52.9952 81.2906 52.9653 82.2626 52.9184C82.4801 52.9056 82.6976 52.8971 82.9105 52.8757C83.6881 52.8288 84.4471 52.7776 85.1923 52.7051C85.4098 52.688 85.6227 52.6624 85.8402 52.6454C86.9556 52.5344 88.0247 52.3936 89.0476 52.24C89.2651 52.2059 89.4873 52.1675 89.7002 52.1334C90.9498 51.9286 92.1161 51.6854 93.1899 51.4208C93.4074 51.3611 93.6249 51.3014 93.8378 51.2459C94.8144 50.9857 95.703 50.6998 96.4898 50.3841C96.7166 50.2945 96.9341 50.2006 97.1424 50.111C97.7857 49.8209 98.3457 49.5222 98.8178 49.2108C99.0585 49.0444 99.2806 48.8822 99.4704 48.7158C100.137 48.1313 100.493 47.5169 100.493 46.8727V43.8946C100.493 44.5346 100.137 45.1532 99.4704 45.7378Z" fill="#EBDEDE"/>
<path d="M99.512 30.3951V37.1363C99.512 37.7763 99.1556 38.395 98.4891 38.9795C98.2994 39.1459 98.0818 39.308 97.8365 39.4744C97.3691 39.7859 96.8091 40.0845 96.1611 40.3747C95.9529 40.4643 95.7353 40.5581 95.5085 40.6435C94.7217 40.9549 93.8331 41.2451 92.8566 41.5053C92.6437 41.5651 92.4308 41.6248 92.2086 41.6803C91.1348 41.9448 89.9685 42.188 88.7189 42.3928C88.506 42.4269 88.2885 42.4653 88.0663 42.4994C87.0435 42.653 85.9744 42.7938 84.8589 42.9048C84.6414 42.9218 84.4285 42.9474 84.211 42.9645C83.4658 43.0328 82.7068 43.0882 81.9293 43.1352C81.7117 43.1522 81.4988 43.165 81.2767 43.1778C80.3048 43.2248 79.3143 43.2546 78.3007 43.2717C78.0832 43.2717 77.8703 43.276 77.6481 43.276H77.1807C76.2365 43.276 75.3062 43.2589 74.3899 43.229C74.1723 43.2248 73.9548 43.212 73.7373 43.2034C72.8024 43.1608 71.8906 43.1053 70.9973 43.0328C70.7752 43.0157 70.5577 42.9986 70.3401 42.9816C69.7246 42.9304 69.1183 42.8621 68.5305 42.7981C68.313 42.7682 68.0954 42.7469 67.8779 42.717C67.1281 42.6232 66.3922 42.5165 65.6934 42.4013C65.4759 42.3672 65.2583 42.333 65.0454 42.2904C64.4299 42.1837 63.8421 42.0685 63.2728 41.9362C63.0553 41.8893 62.8377 41.8424 62.6248 41.7912C61.9167 41.6248 61.2503 41.4499 60.6255 41.2536C60.4033 41.1896 60.1858 41.1171 59.9729 41.0488C59.311 40.8312 58.7047 40.6008 58.1632 40.3533C57.9318 40.2552 57.7143 40.1485 57.5106 40.0419C56.9691 39.7646 56.5017 39.4787 56.1175 39.1758C55.863 38.9752 55.6408 38.7704 55.465 38.5656C55.0716 38.1049 54.8633 37.6313 54.8633 37.1406V30.3994H99.4935L99.512 30.3951Z" fill="#FDC400"/>
<path d="M99.512 30.3994C99.512 33.4031 89.5196 35.8393 77.1946 35.8393C64.8696 35.8393 54.8772 33.4031 54.8772 30.3994C54.8772 27.3958 64.8696 24.9595 77.1946 24.9595C89.5196 24.9595 99.512 27.3958 99.512 30.3994Z" fill="#FFDE00"/>
<path d="M95.5132 29.6741C95.5132 31.7391 87.3119 33.4159 77.1946 33.4159C67.0772 33.4159 58.876 31.7391 58.876 29.6741C58.876 27.6091 67.0772 25.9323 77.1946 25.9323C87.3119 25.9323 95.5132 27.6091 95.5132 29.6741Z" fill="#FFD000"/>
<path d="M59.4406 30.5957C61.4493 28.9744 68.637 27.7755 77.1992 27.7755C85.7615 27.7755 92.9491 28.9744 94.9578 30.5957C95.3234 30.3013 95.5178 29.9941 95.5178 29.6741C95.5178 27.6091 87.3166 25.9323 77.1992 25.9323C67.0819 25.9323 58.8806 27.6091 58.8806 29.6741C58.8806 29.9898 59.075 30.3013 59.4406 30.5957Z" fill="#F8AB08"/>
<path d="M56.1406 33.4159V39.1715C55.8861 38.971 55.6639 38.7662 55.488 38.5614V33.4159H56.1406Z" fill="#F8AB08"/>
<path d="M58.1863 35.1055V40.3491C57.9549 40.251 57.7373 40.1443 57.5337 40.0376V35.1055H58.1863Z" fill="#F8AB08"/>
<path d="M60.6485 36.1422V41.2536C60.4264 41.1896 60.2089 41.117 59.996 41.0488V36.1465H60.6485V36.1422Z" fill="#F8AB08"/>
<path d="M63.2959 36.8334V41.932C63.0784 41.8851 62.8608 41.8381 62.6479 41.7869V36.8377H63.2959V36.8334Z" fill="#F8AB08"/>
<path d="M65.7118 37.499V42.3971C65.4943 42.3629 65.2767 42.3288 65.0638 42.2861V37.499H65.7118Z" fill="#F8AB08"/>
<path d="M68.5489 37.9427V42.7981C68.3314 42.7683 68.1139 42.7469 67.8964 42.7171V37.9427H68.5489Z" fill="#F8AB08"/>
<path d="M71.0159 37.9427V43.0328C70.7937 43.0157 70.5762 42.9986 70.3586 42.9816V37.9427H71.0159Z" fill="#F8AB08"/>
<path d="M74.4083 37.9427V43.229C74.1908 43.2248 73.9733 43.212 73.7557 43.2034V37.9427H74.4083Z" fill="#F8AB08"/>
<path d="M78.3146 37.499V43.2674C78.097 43.2674 77.8841 43.2717 77.662 43.2717V37.499H78.3146Z" fill="#F8AB08"/>
<path d="M81.9385 36.8334V43.1309C81.7209 43.148 81.508 43.1608 81.2859 43.1736V36.8334H81.9385Z" fill="#F8AB08"/>
<path d="M84.8682 36.8334V42.9005C84.6506 42.9176 84.4377 42.9432 84.2202 42.9602V36.8334H84.8682Z" fill="#F8AB08"/>
<path d="M88.7281 36.1422V42.3928C88.5152 42.4269 88.2977 42.4653 88.0756 42.4994V36.1422H88.7281Z" fill="#F8AB08"/>
<path d="M92.8611 35.4766V41.5053C92.6482 41.565 92.4353 41.6248 92.2131 41.6802V35.4766H92.8611Z" fill="#F8AB08"/>
<path d="M96.1656 33.8553V40.3704C95.9574 40.46 95.7398 40.5539 95.5131 40.6392V33.8511H96.1656V33.8553Z" fill="#F8AB08"/>
<path d="M98.4891 32.7503V38.9795C98.2994 39.1459 98.0818 39.308 97.8365 39.4744V32.7503H98.4891Z" fill="#F8AB08"/>
<path d="M98.4891 36.0014C98.2994 36.1678 98.0818 36.3299 97.8365 36.4963C97.3691 36.8078 96.8091 37.1107 96.1611 37.3966C95.9529 37.4862 95.7353 37.5801 95.5085 37.6654C94.7217 37.9768 93.8331 38.267 92.8566 38.523C92.6437 38.5827 92.4308 38.6424 92.2086 38.7022C91.1348 38.9667 89.9685 39.2099 88.7189 39.4147C88.506 39.4488 88.2885 39.4872 88.0663 39.5213C87.0435 39.6749 85.9744 39.8157 84.8589 39.9267C84.6414 39.9437 84.4285 39.9693 84.211 39.9864C83.4658 40.0547 82.7068 40.1101 81.9293 40.1571C81.7117 40.1741 81.4988 40.1869 81.2767 40.1997C80.3048 40.2467 79.3143 40.2765 78.3007 40.2936C78.0832 40.2936 77.8703 40.2979 77.6481 40.2979H77.1807C76.2365 40.2979 75.3062 40.2808 74.3899 40.2509C74.1723 40.2467 73.9548 40.2339 73.7373 40.2253C72.8024 40.1827 71.8906 40.1272 70.9973 40.0547C70.7752 40.0376 70.5577 40.0205 70.3401 40.0035C69.7246 39.9523 69.1183 39.884 68.5305 39.82C68.313 39.7901 68.0954 39.7688 67.8779 39.7347C67.1281 39.6408 66.3922 39.5341 65.6934 39.419C65.4759 39.3848 65.2583 39.3464 65.0454 39.308C64.4299 39.2014 63.8421 39.0862 63.2728 38.9539C63.0553 38.907 62.8377 38.86 62.6248 38.8088C61.9167 38.6424 61.2503 38.4675 60.6255 38.2712C60.4033 38.2072 60.1858 38.1347 59.9729 38.0664C59.311 37.8489 58.7047 37.6185 58.1632 37.371C57.9318 37.2729 57.7143 37.1662 57.5106 37.0595C56.9691 36.7822 56.5017 36.4963 56.1175 36.1934C55.863 35.9929 55.6408 35.7881 55.465 35.5833C55.0716 35.1225 54.8633 34.6489 54.8633 34.1583V37.1363C54.8633 37.6227 55.0716 38.1006 55.465 38.5614C55.6408 38.7662 55.863 38.9752 56.1175 39.1715C56.5017 39.4702 56.9645 39.7603 57.5106 40.0376C57.7189 40.1443 57.9364 40.2509 58.1632 40.3491C58.7047 40.5965 59.311 40.8269 59.9729 41.0445C60.1858 41.1171 60.3987 41.1853 60.6255 41.2493C61.2549 41.4413 61.9214 41.6205 62.6248 41.7869C62.8377 41.8381 63.0507 41.885 63.2728 41.932C63.8421 42.06 64.4299 42.1794 65.0454 42.2861C65.2583 42.3288 65.4712 42.3629 65.6934 42.397C66.3969 42.5165 67.1281 42.6189 67.8779 42.7128C68.0954 42.7426 68.3083 42.764 68.5305 42.7938C69.1229 42.8578 69.7246 42.9218 70.3401 42.9773C70.5577 42.9943 70.7752 43.0114 70.9973 43.0285C71.8906 43.101 72.807 43.1565 73.7373 43.1991C73.9548 43.2034 74.1677 43.2162 74.3899 43.2247C75.3062 43.2546 76.2365 43.2717 77.1807 43.2717H77.6481C77.8657 43.2717 78.0832 43.2674 78.3007 43.2674C79.3143 43.2503 80.3048 43.2205 81.2767 43.1735C81.4942 43.1607 81.7117 43.1522 81.9293 43.1309C82.7068 43.0839 83.4658 43.0327 84.211 42.9602C84.4239 42.9431 84.6414 42.9176 84.8589 42.9005C85.9744 42.7896 87.0435 42.6488 88.0663 42.4952C88.2838 42.461 88.506 42.4269 88.7189 42.3885C89.9685 42.1837 91.1302 41.9405 92.2086 41.676C92.4261 41.6162 92.6437 41.5565 92.8566 41.501C93.8331 41.2408 94.7217 40.9549 95.5085 40.6392C95.7353 40.5496 95.9529 40.4557 96.1611 40.3704C96.8045 40.0803 97.3691 39.7816 97.8365 39.4702C98.0772 39.3038 98.2994 39.1416 98.4891 38.9752C99.1556 38.3907 99.512 37.7763 99.512 37.1321V34.154C99.512 34.794 99.1556 35.4126 98.4891 35.9972V36.0014Z" fill="#EBDEDE"/>
<path d="M97.5912 22.2118V28.953C97.5912 29.593 97.2348 30.2116 96.5684 30.7962C96.3786 30.9626 96.1611 31.1247 95.9158 31.2911C95.4484 31.6025 94.8837 31.9012 94.2404 32.1913C94.0321 32.2809 93.8146 32.3748 93.5878 32.4601C92.801 32.7716 91.9124 33.0617 90.9358 33.322C90.7229 33.3817 90.51 33.4414 90.2879 33.4969C89.2141 33.7614 88.0478 34.0046 86.7982 34.2094C86.5853 34.2436 86.3677 34.282 86.1456 34.3161C85.1227 34.4697 84.0536 34.6105 82.9336 34.7214C82.716 34.7385 82.5031 34.7641 82.2856 34.7811C81.5405 34.8537 80.7814 34.9049 80.0039 34.9518C79.7864 34.9689 79.5735 34.9817 79.3513 34.9945C78.3794 35.0414 77.3889 35.0713 76.3753 35.0883C76.1578 35.0883 75.9449 35.0926 75.7228 35.0926H75.2599C74.3158 35.0926 73.3855 35.0755 72.4691 35.0457C72.2516 35.0414 72.0341 35.0286 71.8165 35.0243C70.8816 34.9817 69.9699 34.9262 69.0766 34.8537C68.8591 34.8366 68.6369 34.8195 68.424 34.8025C67.8085 34.7513 67.2068 34.683 66.6144 34.619C66.3968 34.5891 66.1793 34.5678 65.9618 34.5379C65.212 34.4441 64.4761 34.3374 63.7773 34.218C63.5551 34.1838 63.3422 34.1497 63.1293 34.107C62.5137 34.0004 61.9306 33.8852 61.3613 33.7529C61.1438 33.706 60.9263 33.659 60.7134 33.6078C60.0052 33.4414 59.3388 33.2665 58.714 33.0702C58.4918 33.0062 58.2743 32.9337 58.066 32.8654C57.4042 32.6479 56.7979 32.4175 56.2564 32.17C56.025 32.0719 55.812 31.9652 55.6038 31.8585C55.0623 31.5812 54.5948 31.2953 54.2107 30.9924C53.9561 30.7919 53.734 30.5871 53.5581 30.3823C53.1647 29.9215 52.9564 29.4479 52.9564 28.9573V22.2161H97.5866L97.5912 22.2118Z" fill="#FDC400"/>
<path d="M97.5912 22.2161C97.5912 25.2197 87.5989 27.656 75.2785 27.656C62.9581 27.656 52.9611 25.2197 52.9611 22.2161C52.9611 19.2124 62.9534 16.7762 75.2785 16.7762C87.6035 16.7762 97.5912 19.2124 97.5912 22.2161Z" fill="#FFDE00"/>
<path d="M93.5924 21.4908C93.5924 23.5558 85.3911 25.2325 75.2738 25.2325C65.1565 25.2325 56.9552 23.5558 56.9552 21.4908C56.9552 19.4257 65.1565 17.749 75.2738 17.749C85.3911 17.749 93.5924 19.4257 93.5924 21.4908Z" fill="#FFD000"/>
<path d="M57.5152 22.4123C59.5239 20.791 66.7115 19.5921 75.2738 19.5921C83.8361 19.5921 91.0237 20.791 93.0324 22.4123C93.398 22.1179 93.5924 21.8108 93.5924 21.495C93.5924 19.43 85.3911 17.7532 75.2738 17.7532C65.1565 17.7532 56.9552 19.43 56.9552 21.495C56.9552 21.8108 57.1496 22.1222 57.5152 22.4123Z" fill="#F8AB08"/>
<path d="M54.2153 25.2325V30.9882C53.9608 30.7876 53.7386 30.5828 53.5627 30.378V25.2325H54.2153Z" fill="#F8AB08"/>
<path d="M56.261 26.9221V32.1657C56.0296 32.0676 55.8167 31.961 55.6084 31.8543V26.9221H56.261Z" fill="#F8AB08"/>
<path d="M58.7233 27.9589V33.0702C58.5011 33.0062 58.2836 32.9337 58.0753 32.8654V27.9631H58.7233V27.9589Z" fill="#F8AB08"/>
<path d="M61.3752 28.6501V33.7487C61.1577 33.7017 60.9402 33.6548 60.7273 33.6036V28.6544H61.3752V28.6501Z" fill="#F8AB08"/>
<path d="M63.7911 29.3157V34.2137C63.569 34.1796 63.3561 34.1454 63.1432 34.1028V29.3157H63.7911Z" fill="#F8AB08"/>
<path d="M66.6283 29.7594V34.6148C66.4108 34.5849 66.1932 34.5636 65.9757 34.5337V29.7594H66.6283Z" fill="#F8AB08"/>
<path d="M69.0951 29.7594V34.8494C68.8776 34.8324 68.6554 34.8153 68.4425 34.7982V29.7594H69.0951Z" fill="#F8AB08"/>
<path d="M72.4877 29.7594V35.0457C72.2701 35.0414 72.0526 35.0286 71.8351 35.0244V29.7637H72.4877V29.7594Z" fill="#F8AB08"/>
<path d="M76.3893 29.3157V35.0841C76.1718 35.0841 75.9589 35.0884 75.7367 35.0884V29.3114H76.3893V29.3157Z" fill="#F8AB08"/>
<path d="M80.0178 28.6501V34.9476C79.8003 34.9646 79.5874 34.9774 79.3652 34.9902V28.6501H80.0178Z" fill="#F8AB08"/>
<path d="M82.9429 28.6501V34.7172C82.7254 34.7342 82.5124 34.7598 82.2949 34.7769V28.6501H82.9429Z" fill="#F8AB08"/>
<path d="M86.8075 27.9589V34.2094C86.5946 34.2435 86.3771 34.2819 86.1549 34.3161V27.9589H86.8075Z" fill="#F8AB08"/>
<path d="M90.9404 27.2933V33.322C90.7275 33.3817 90.5146 33.4414 90.2925 33.4969V27.2933H90.9404Z" fill="#F8AB08"/>
<path d="M94.245 25.672V32.1871C94.0367 32.2767 93.8192 32.3705 93.5924 32.4559V25.6677H94.245V25.672Z" fill="#F8AB08"/>
<path d="M96.5683 24.567V30.7962C96.3786 30.9626 96.1611 31.1247 95.9158 31.2911V24.5712H96.5683V24.567Z" fill="#F8AB08"/>
<path d="M96.5684 27.8139C96.3786 27.9803 96.1611 28.1424 95.9158 28.3088C95.4484 28.6202 94.8837 28.9189 94.2404 29.209C94.0321 29.2986 93.8146 29.3925 93.5878 29.4778C92.801 29.7893 91.9124 30.0794 90.9358 30.3397C90.7229 30.3994 90.51 30.4549 90.2879 30.5146C89.2141 30.7791 88.0478 31.0223 86.7982 31.2271C86.5853 31.2613 86.3677 31.2997 86.1456 31.3338C85.1227 31.4874 84.0536 31.6282 82.9336 31.7391C82.716 31.7562 82.5031 31.7818 82.2856 31.7988C81.5405 31.8714 80.7814 31.9226 80.0039 31.9695C79.7864 31.9866 79.5735 31.9994 79.3513 32.0122C78.3794 32.0591 77.3889 32.089 76.3753 32.106C76.1578 32.106 75.9449 32.1103 75.7228 32.1103H75.2599C74.3158 32.1103 73.3855 32.0932 72.4691 32.0634C72.2516 32.0591 72.0341 32.0463 71.8165 32.0378C70.8816 31.9951 69.9699 31.9396 69.0766 31.8671C68.8591 31.85 68.6369 31.833 68.424 31.8159C67.8085 31.7647 67.2068 31.6964 66.6144 31.6324C66.3968 31.6026 66.1793 31.5812 65.9618 31.5514C65.212 31.4575 64.4761 31.3509 63.7773 31.2314C63.5551 31.1973 63.3422 31.1589 63.1293 31.1205C62.5137 31.0138 61.9306 30.8986 61.3613 30.7663C61.1438 30.7194 60.9263 30.6725 60.7134 30.617C60.0052 30.4506 59.3388 30.2757 58.714 30.0794C58.4918 30.0154 58.2743 29.9429 58.066 29.8746C57.4042 29.657 56.7979 29.4266 56.2564 29.1792C56.025 29.081 55.812 28.9744 55.6038 28.8677C55.0623 28.5904 54.5948 28.3045 54.2107 28.0016C53.9561 27.8011 53.734 27.5963 53.5581 27.3915C53.1647 26.9307 52.9564 26.4571 52.9564 25.9664V28.9445C52.9564 29.4309 53.1647 29.9087 53.5581 30.3695C53.7386 30.5743 53.9561 30.7834 54.2107 30.9797C54.5948 31.2783 55.0576 31.5684 55.6038 31.8458C55.812 31.9524 56.0296 32.0591 56.2564 32.1572C56.7979 32.4047 57.4042 32.6351 58.066 32.8527C58.2789 32.9252 58.4918 32.9935 58.714 33.0575C59.3434 33.2537 60.0099 33.4287 60.7134 33.5951C60.9263 33.6463 61.1392 33.6932 61.3613 33.7401C61.9306 33.8681 62.5184 33.9876 63.1293 34.0943C63.3422 34.1369 63.5551 34.1711 63.7773 34.2052C64.4808 34.3247 65.212 34.4313 65.9618 34.5252C66.1793 34.5551 66.3922 34.5764 66.6144 34.6063C67.2068 34.6703 67.8085 34.7343 68.424 34.7897C68.6415 34.8068 68.8591 34.8239 69.0766 34.8409C69.9699 34.9134 70.8816 34.9689 71.8165 35.0116C72.0341 35.0158 72.247 35.0286 72.4691 35.0329C73.3855 35.0628 74.3158 35.0798 75.2599 35.0798H75.7228C75.9403 35.0798 76.1578 35.0756 76.3753 35.0756C77.3889 35.0585 78.3794 35.0286 79.3513 34.9817C79.5688 34.9689 79.7864 34.9561 80.0039 34.939C80.7814 34.8921 81.5405 34.8409 82.2856 34.7684C82.5031 34.7513 82.716 34.7257 82.9336 34.7087C84.049 34.5977 85.1227 34.4569 86.1456 34.3033C86.3631 34.2692 86.5853 34.2308 86.7982 34.1967C88.0478 33.9919 89.2141 33.7487 90.2879 33.4841C90.5054 33.4244 90.7229 33.3647 90.9358 33.3092C91.9124 33.049 92.801 32.7631 93.5878 32.4474C93.8146 32.3578 94.0321 32.2639 94.2404 32.1786C94.8837 31.8884 95.4437 31.5898 95.9158 31.2783C96.1565 31.1119 96.3786 30.9498 96.5684 30.7834C97.2348 30.1989 97.5912 29.5845 97.5912 28.9402V25.9622C97.5912 26.6021 97.2348 27.2208 96.5684 27.8053V27.8139Z" fill="#EBDEDE"/>
<path d="M99.512 13.6189V20.3601C99.512 21.0001 99.1556 21.6187 98.4891 22.2033C98.2994 22.3654 98.0818 22.5318 97.8365 22.6982C97.3691 23.0096 96.8091 23.3083 96.1611 23.5984C95.9529 23.688 95.7353 23.7819 95.5085 23.8672C94.7217 24.1787 93.8331 24.4688 92.8566 24.7248C92.6437 24.7845 92.4308 24.8443 92.2086 24.8997C91.1348 25.1643 89.9685 25.4075 88.7189 25.6123C88.506 25.6464 88.2885 25.6848 88.0663 25.7189C87.0435 25.8725 85.9744 26.0133 84.8589 26.1242C84.6414 26.1413 84.4285 26.1669 84.211 26.184C83.4658 26.2522 82.7068 26.3077 81.9293 26.3546C81.7117 26.3717 81.4988 26.3845 81.2767 26.3973C80.3048 26.4442 79.3143 26.4741 78.3007 26.4912C78.0832 26.4912 77.8703 26.4954 77.6481 26.4954H77.1807C76.2365 26.4954 75.3062 26.4784 74.3899 26.4485C74.1723 26.4442 73.9548 26.4314 73.7373 26.4229C72.8024 26.3802 71.8906 26.3248 70.9973 26.2522C70.7752 26.2352 70.5577 26.2181 70.3401 26.201C69.7246 26.1498 69.1183 26.0816 68.5305 26.0176C68.313 25.9877 68.0954 25.9664 67.8779 25.9365C67.1281 25.8426 66.3922 25.736 65.6934 25.6165C65.4759 25.5824 65.2583 25.544 65.0454 25.5056C64.4299 25.3989 63.8421 25.2837 63.2728 25.1515C63.0553 25.1045 62.8377 25.0576 62.6248 25.0064C61.9167 24.84 61.2503 24.6651 60.6255 24.4688C60.4033 24.4048 60.1858 24.3323 59.9729 24.264C59.311 24.0464 58.7047 23.816 58.1632 23.5686C57.9318 23.4704 57.7143 23.3638 57.5106 23.2571C56.9691 22.9798 56.5017 22.6939 56.1175 22.391C55.863 22.1905 55.6408 21.9857 55.465 21.7809C55.0716 21.3201 54.8633 20.8465 54.8633 20.3558V13.6146H99.4935L99.512 13.6189Z" fill="#FDC400"/>
<path d="M77.1994 19.0631C89.5249 19.0631 99.5168 16.6276 99.5168 13.6232C99.5168 10.6188 89.5249 8.18329 77.1994 8.18329C64.8738 8.18329 54.882 10.6188 54.882 13.6232C54.882 16.6276 64.8738 19.0631 77.1994 19.0631Z" fill="#FFDE00"/>
<path d="M95.5132 12.8979C95.5132 14.9629 87.3119 16.6397 77.1946 16.6397C67.0772 16.6397 58.876 14.9629 58.876 12.8979C58.876 10.8328 67.0772 9.15607 77.1946 9.15607C87.3119 9.15607 95.5132 10.8328 95.5132 12.8979Z" fill="#FFD000"/>
<path d="M59.4406 13.8194C61.4493 12.1981 68.637 10.9992 77.1992 10.9992C85.7615 10.9992 92.9491 12.1981 94.9578 13.8194C95.3234 13.525 95.5178 13.2179 95.5178 12.8979C95.5178 10.8328 87.3166 9.15607 77.1992 9.15607C67.0819 9.15607 58.8806 10.8328 58.8806 12.8979C58.8806 13.2136 59.075 13.525 59.4406 13.8194Z" fill="#F8AB08"/>
<path d="M56.1406 16.6396V22.3953C55.8861 22.1947 55.6639 21.9899 55.488 21.7851V16.6396H56.1406Z" fill="#F8AB08"/>
<path d="M58.1863 18.3292V23.5729C57.9549 23.4747 57.7373 23.3681 57.5337 23.2614V18.3292H58.1863Z" fill="#F8AB08"/>
<path d="M60.6485 19.366V24.4773C60.4264 24.4133 60.2089 24.3408 59.996 24.2725V19.3702H60.6485V19.366Z" fill="#F8AB08"/>
<path d="M63.2959 20.0572V25.1558C63.0784 25.1088 62.8608 25.0619 62.6479 25.0107V20.0615H63.2959V20.0572Z" fill="#F8AB08"/>
<path d="M65.7118 20.7228V25.6208C65.4943 25.5867 65.2767 25.5483 65.0638 25.5099V20.7228H65.7118Z" fill="#F8AB08"/>
<path d="M68.5489 21.1665V26.0219C68.3314 25.992 68.1139 25.9707 67.8964 25.9408V21.1665H68.5489Z" fill="#F8AB08"/>
<path d="M71.0159 21.1665V26.2565C70.7937 26.2395 70.5762 26.2224 70.3586 26.2053V21.1665H71.0159Z" fill="#F8AB08"/>
<path d="M74.4083 21.1665V26.4528C74.1908 26.4485 73.9733 26.4357 73.7557 26.4272V21.1665H74.4083Z" fill="#F8AB08"/>
<path d="M78.3146 20.7228V26.4912C78.097 26.4912 77.8841 26.4955 77.662 26.4955V20.7228H78.3146Z" fill="#F8AB08"/>
<path d="M81.9385 20.0572V26.3547C81.7209 26.3717 81.508 26.3845 81.2859 26.3973V20.0572H81.9385Z" fill="#F8AB08"/>
<path d="M84.8682 20.0572V26.1243C84.6506 26.1413 84.4377 26.1669 84.2202 26.184V20.0572H84.8682Z" fill="#F8AB08"/>
<path d="M88.7281 19.366V25.6165C88.5152 25.6506 88.2977 25.689 88.0756 25.7232V19.366H88.7281Z" fill="#F8AB08"/>
<path d="M92.8611 18.7004V24.7291C92.6482 24.7888 92.4353 24.8485 92.2131 24.904V18.7004H92.8611Z" fill="#F8AB08"/>
<path d="M96.1656 17.0791V23.5942C95.9574 23.6838 95.7398 23.7776 95.5131 23.863V17.0748H96.1656V17.0791Z" fill="#F8AB08"/>
<path d="M98.4891 15.9741V22.2033C98.2994 22.3654 98.0818 22.5318 97.8365 22.6982V15.9741H98.4891Z" fill="#F8AB08"/>
<path d="M98.4891 19.2252C98.2994 19.3916 98.0818 19.5537 97.8365 19.7201C97.3691 20.0316 96.8091 20.3345 96.1611 20.6203C95.9529 20.7099 95.7353 20.8038 95.5085 20.8934C94.7217 21.2049 93.8331 21.495 92.8566 21.751C92.6437 21.8107 92.4308 21.8705 92.2086 21.9259C91.1348 22.1905 89.9685 22.4336 88.7189 22.6384C88.506 22.6726 88.2885 22.711 88.0663 22.7451C87.0435 22.8987 85.9744 23.0395 84.8589 23.1504C84.6414 23.1675 84.4285 23.1931 84.211 23.2102C83.4658 23.2784 82.7068 23.3339 81.9293 23.3808C81.7117 23.3979 81.4988 23.4107 81.2767 23.4235C80.3048 23.4704 79.3143 23.5003 78.3007 23.5174C78.0832 23.5174 77.8703 23.5216 77.6481 23.5216H77.1807C76.2365 23.5216 75.3062 23.5046 74.3899 23.4747C74.1723 23.4704 73.9548 23.4576 73.7373 23.4491C72.8024 23.4064 71.8906 23.351 70.9973 23.2784C70.7752 23.2614 70.5577 23.2443 70.3401 23.2272C69.7246 23.176 69.1183 23.1078 68.5305 23.0438C68.313 23.0139 68.0954 22.9926 67.8779 22.9627C67.1281 22.8688 66.3922 22.7622 65.6934 22.6427C65.4759 22.6086 65.2583 22.5744 65.0454 22.5318C64.4299 22.4251 63.8421 22.3099 63.2728 22.1777C63.0553 22.1307 62.8377 22.0838 62.6248 22.0326C61.9167 21.8662 61.2503 21.6913 60.6255 21.495C60.4033 21.431 60.1858 21.3585 59.9729 21.2902C59.311 21.0726 58.7047 20.8422 58.1632 20.5947C57.9318 20.4966 57.7143 20.39 57.5106 20.2833C56.9691 20.006 56.5017 19.7201 56.1175 19.4172C55.863 19.2166 55.6408 19.0118 55.465 18.8028C55.0716 18.342 54.8633 17.8684 54.8633 17.3777V20.3558C54.8633 20.8465 55.0716 21.3201 55.465 21.7809C55.6408 21.9857 55.863 22.1947 56.1175 22.391C56.5017 22.6896 56.9645 22.9798 57.5106 23.2571C57.7189 23.3638 57.9364 23.4704 58.1632 23.5686C58.7047 23.816 59.311 24.0464 59.9729 24.264C60.1858 24.3365 60.3987 24.4048 60.6255 24.4688C61.2549 24.6651 61.9214 24.84 62.6248 25.0064C62.8377 25.0576 63.0507 25.1045 63.2728 25.1515C63.8421 25.2795 64.4299 25.3989 65.0454 25.5056C65.2583 25.5483 65.4712 25.5824 65.6934 25.6165C66.3969 25.736 67.1281 25.8384 67.8779 25.9365C68.0954 25.9664 68.3083 25.9877 68.5305 26.0176C69.1229 26.0816 69.7246 26.1456 70.3401 26.201C70.5577 26.2181 70.7752 26.2352 70.9973 26.2522C71.8906 26.3248 72.807 26.3845 73.7373 26.4229C73.9548 26.4272 74.1677 26.44 74.3899 26.4485C75.3062 26.4784 76.2365 26.4954 77.1807 26.4954H77.6481C77.8657 26.4954 78.0832 26.4912 78.3007 26.4912C79.3143 26.4741 80.3048 26.4442 81.2767 26.3973C81.4942 26.3845 81.7117 26.3717 81.9293 26.3546C82.7068 26.3077 83.4658 26.2522 84.211 26.184C84.4239 26.1669 84.6414 26.1413 84.8589 26.1242C85.9744 26.0133 87.0435 25.8725 88.0663 25.7189C88.2838 25.6848 88.506 25.6464 88.7189 25.6122C89.9685 25.4075 91.1302 25.1643 92.2086 24.8997C92.4261 24.84 92.6437 24.7803 92.8566 24.7248C93.8331 24.4645 94.7217 24.1787 95.5085 23.8672C95.7353 23.7776 95.9529 23.6838 96.1611 23.5984C96.8045 23.3083 97.3691 23.0096 97.8365 22.6982C98.0772 22.5318 98.2994 22.3696 98.4891 22.2033C99.1556 21.6187 99.512 21.0001 99.512 20.3601V17.382C99.512 18.022 99.1556 18.6407 98.4891 19.2252Z" fill="#EBDEDE"/>
<path d="M101.914 5.43561V12.1768C101.914 12.8168 101.558 13.4354 100.891 14.02C100.701 14.1864 100.479 14.3485 100.239 14.5149C99.7711 14.8264 99.2065 15.1293 98.5631 15.4151C98.3549 15.5047 98.1373 15.5986 97.9106 15.6839C97.1238 15.9954 96.2351 16.2855 95.2586 16.5458C95.0457 16.6055 94.8328 16.6653 94.6106 16.7207C93.5369 16.9852 92.3706 17.2284 91.1209 17.4332C90.908 17.4674 90.6905 17.5058 90.4683 17.5399C89.4455 17.6935 88.3764 17.8343 87.261 17.9452C87.0434 17.9623 86.8305 17.9879 86.613 18.005C85.8679 18.0732 85.1088 18.1287 84.3313 18.1756C84.1184 18.1927 83.9009 18.2055 83.6833 18.2183C82.7114 18.2652 81.721 18.2951 80.7074 18.3122C80.4898 18.3122 80.2769 18.3164 80.0548 18.3164H79.592C78.6478 18.3164 77.7175 18.2994 76.8011 18.2695C76.5836 18.2652 76.3661 18.2524 76.1485 18.2482C75.2136 18.2055 74.3019 18.15 73.4086 18.0775C73.1911 18.0604 72.9689 18.0434 72.756 18.0263C72.1405 17.9751 71.5342 17.9068 70.9464 17.8428C70.7289 17.813 70.5113 17.7916 70.2938 17.7618C69.544 17.6679 68.8082 17.5612 68.1093 17.4418C67.8918 17.4076 67.6742 17.3735 67.4613 17.3308C66.8458 17.2242 66.258 17.109 65.6887 16.9767C65.4712 16.9298 65.2537 16.8828 65.0408 16.8274C64.3326 16.661 63.6662 16.4861 63.0414 16.2941C62.8192 16.2301 62.6017 16.1575 62.3934 16.0893C61.7316 15.8717 61.1253 15.6413 60.5838 15.3938C60.3523 15.2957 60.1394 15.189 59.9312 15.0823C59.3897 14.805 58.9222 14.5149 58.5381 14.2162C58.2835 14.0157 58.0614 13.8109 57.8855 13.6061C57.4921 13.1453 57.2838 12.6717 57.2838 12.1811V5.43987H101.914V5.43561Z" fill="#FDC400"/>
<path d="M101.914 5.43989C101.914 8.44357 91.9216 10.8798 79.6012 10.8798C67.2808 10.8798 57.2838 8.44357 57.2838 5.43989C57.2838 2.43622 67.2762 0 79.6012 0C91.9262 0 101.914 2.43622 101.914 5.43989Z" fill="#FFDE00"/>
<path d="M97.9152 4.71457C97.9152 6.7796 89.7139 8.45636 79.5966 8.45636C69.4792 8.45636 61.278 6.7796 61.278 4.71457C61.278 2.64955 69.4792 0.972778 79.5966 0.972778C89.7139 0.972778 97.9152 2.64955 97.9152 4.71457Z" fill="#FFD000"/>
<path d="M61.8426 5.63615C63.8513 4.01485 71.0389 2.81594 79.6012 2.81594C88.1634 2.81594 95.3511 4.01485 97.3598 5.63615C97.7254 5.34176 97.9198 5.03456 97.9198 4.71457C97.9198 2.64955 89.7185 0.972778 79.6012 0.972778C69.4838 0.972778 61.2826 2.64955 61.2826 4.71457C61.2826 5.0303 61.477 5.34176 61.8426 5.63615Z" fill="#F8AB08"/>
<path d="M58.5427 8.45636V14.212C58.2882 14.0115 58.066 13.8067 57.8901 13.6019V8.45636H58.5427Z" fill="#F8AB08"/>
<path d="M60.5884 10.1459V15.3896C60.357 15.2914 60.1441 15.1848 59.9358 15.0781V10.1459H60.5884Z" fill="#F8AB08"/>
<path d="M63.0507 11.1827V16.294C62.8285 16.23 62.611 16.1575 62.4027 16.0892V11.1869H63.0507V11.1827Z" fill="#F8AB08"/>
<path d="M65.698 11.8782V16.9767C65.4805 16.9298 65.2629 16.8829 65.05 16.8274V11.8782H65.698Z" fill="#F8AB08"/>
<path d="M68.1139 12.5395V17.4375C67.8964 17.4034 67.6788 17.3693 67.4659 17.3266V12.5395H68.1139Z" fill="#F8AB08"/>
<path d="M70.9557 12.9832V17.8386C70.7382 17.8087 70.5206 17.7874 70.3031 17.7575V12.9832H70.9557Z" fill="#F8AB08"/>
<path d="M73.418 12.9832V18.0732C73.2004 18.0562 72.9783 18.0391 72.7654 18.022V12.9832H73.418Z" fill="#F8AB08"/>
<path d="M76.8104 12.9832V18.2695C76.5929 18.2652 76.3754 18.2524 76.1578 18.2482V12.9875H76.8104V12.9832Z" fill="#F8AB08"/>
<path d="M80.7167 12.5395V18.3079C80.4991 18.3079 80.2862 18.3122 80.0641 18.3122V12.5395H80.7167Z" fill="#F8AB08"/>
<path d="M84.3406 11.8782V18.1756C84.1277 18.1927 83.9102 18.2055 83.6926 18.2183V11.8782H84.3406Z" fill="#F8AB08"/>
<path d="M87.2703 11.8782V17.9453C87.0527 17.9623 86.8398 17.9879 86.6223 18.005V11.8782H87.2703Z" fill="#F8AB08"/>
<path d="M91.1302 11.1827V17.4332C90.9173 17.4674 90.6998 17.5058 90.4777 17.5399V11.1827H91.1302Z" fill="#F8AB08"/>
<path d="M95.2632 10.5171V16.5458C95.0503 16.6055 94.8374 16.6652 94.6152 16.7207V10.5171H95.2632Z" fill="#F8AB08"/>
<path d="M98.5677 8.89581V15.4109C98.3595 15.5005 98.1419 15.5943 97.9152 15.6797V8.89154H98.5677V8.89581Z" fill="#F8AB08"/>
<path d="M100.896 7.79077V14.02C100.706 14.1864 100.484 14.3485 100.243 14.5149V7.79504H100.896V7.79077Z" fill="#F8AB08"/>
<path d="M100.896 11.0419C100.706 11.2083 100.484 11.3704 100.243 11.5368C99.7757 11.8483 99.2111 12.1512 98.5678 12.4371C98.3595 12.5267 98.142 12.6205 97.9152 12.7101C97.1284 13.0216 96.2398 13.3117 95.2632 13.5677C95.0503 13.6274 94.8374 13.6872 94.6153 13.7426C93.5415 14.0072 92.3752 14.2504 91.1256 14.4552C90.9127 14.4893 90.6951 14.5277 90.473 14.5618C89.4501 14.7154 88.381 14.8562 87.2656 14.9672C87.0481 14.9842 86.8352 15.0098 86.6176 15.0269C85.8725 15.0994 85.1135 15.1506 84.3359 15.1975C84.123 15.2146 83.9055 15.2274 83.688 15.2402C82.716 15.2871 81.7256 15.317 80.712 15.3341C80.4945 15.3341 80.2816 15.3383 80.0594 15.3383H79.5966C78.6524 15.3383 77.7222 15.3213 76.8058 15.2914C76.5882 15.2871 76.3707 15.2743 76.1532 15.2701C75.2183 15.2274 74.3065 15.1719 73.4133 15.0994C73.1957 15.0823 72.9736 15.0653 72.7607 15.0482C72.1451 14.997 71.5388 14.9288 70.951 14.8648C70.7335 14.8349 70.516 14.8136 70.2985 14.7837C69.5487 14.6898 68.8128 14.5832 68.1139 14.4637C67.8964 14.4296 67.6789 14.3954 67.466 14.3528C66.8504 14.2461 66.2626 14.1309 65.6933 13.9986C65.4758 13.9517 65.2583 13.9048 65.0454 13.8536C64.3373 13.6872 63.6708 13.5122 63.046 13.316C62.8238 13.252 62.6063 13.1795 62.398 13.1112C61.7362 12.8936 61.1299 12.6632 60.5884 12.4157C60.357 12.3176 60.1441 12.2109 59.9358 12.1043C59.3943 11.8269 58.9269 11.5411 58.5427 11.2382C58.2882 11.0376 58.066 10.8328 57.8901 10.628C57.4967 10.1672 57.2885 9.69365 57.2885 9.203V12.1811C57.2885 12.6675 57.4967 13.1453 57.8901 13.6061C58.066 13.8109 58.2882 14.0157 58.5427 14.2162C58.9269 14.5149 59.3897 14.805 59.9358 15.0823C60.1441 15.189 60.3616 15.2957 60.5884 15.3938C61.1299 15.6413 61.7362 15.8717 62.398 16.0893C62.6109 16.1618 62.8238 16.2301 63.046 16.2941C63.6754 16.4861 64.3419 16.6652 65.0454 16.8274C65.2583 16.8786 65.4712 16.9255 65.6933 16.9767C66.2626 17.1047 66.8504 17.2242 67.466 17.3308C67.6789 17.3735 67.8918 17.4076 68.1139 17.4418C68.8174 17.5612 69.5487 17.6679 70.2985 17.7618C70.516 17.7916 70.7289 17.813 70.951 17.8428C71.5435 17.9068 72.1451 17.9708 72.7607 18.0263C72.9782 18.0434 73.1957 18.0604 73.4133 18.0775C74.3065 18.15 75.2183 18.2055 76.1532 18.2482C76.3707 18.2524 76.5836 18.2652 76.8058 18.2695C77.7222 18.2993 78.6524 18.3164 79.5966 18.3164H80.0594C80.2769 18.3164 80.4945 18.3121 80.712 18.3121C81.7256 18.2951 82.716 18.2652 83.688 18.2183C83.9055 18.2055 84.123 18.197 84.3359 18.1756C85.1135 18.1287 85.8725 18.0775 86.6176 18.005C86.8352 17.9879 87.0481 17.9623 87.2656 17.9452C88.381 17.8343 89.4548 17.6935 90.473 17.5399C90.6905 17.5058 90.9127 17.4674 91.1256 17.4332C92.3752 17.2284 93.5369 16.9852 94.6153 16.7207C94.8328 16.661 95.0503 16.6013 95.2632 16.5458C96.2398 16.2855 97.1284 15.9997 97.9152 15.6839C98.142 15.5943 98.3595 15.5005 98.5678 15.4151C99.2111 15.125 99.7711 14.8264 100.243 14.5149C100.484 14.3485 100.706 14.1864 100.896 14.02C101.562 13.4354 101.919 12.8211 101.919 12.1768V9.19873C101.919 9.83872 101.562 10.4574 100.896 11.0419Z" fill="#EBDEDE"/>
<path d="M49.2122 23.3851C49.2122 23.7264 49.2029 24.0592 49.1844 24.3963C49.1705 24.6779 49.1474 24.951 49.1104 25.224C49.0456 25.8299 48.9484 26.4229 48.8142 27.0117C48.754 27.2933 48.6892 27.5664 48.6151 27.8394C48.2958 28.9786 47.87 30.0709 47.3285 31.1076C47.1943 31.3892 47.0415 31.6666 46.8842 31.9353C46.5047 32.5753 46.0927 33.1897 45.6345 33.787C45.4263 34.0686 45.2041 34.346 44.9634 34.6148C44.4312 35.2505 43.8388 35.8521 43.2001 36.4025C42.8715 36.6969 42.5429 36.9699 42.2004 37.2259C41.3951 37.8531 40.5342 38.412 39.6317 38.9069C39.0856 39.2141 38.5209 39.4872 37.9424 39.7304C35.4246 40.8226 32.6199 41.4285 29.6578 41.4285H25.2147V5.34601H29.6578C32.8606 5.34601 35.8967 6.06279 38.5718 7.33424C39.1133 7.5817 39.6363 7.85903 40.1408 8.15769C41.0433 8.68248 41.9042 9.28406 42.6956 9.94538C43.0242 10.2056 43.3343 10.483 43.6351 10.7688C44.6441 11.716 45.5374 12.7699 46.301 13.9005C46.4769 14.165 46.6574 14.4381 46.8194 14.7197C47.4581 15.7863 47.9718 16.917 48.3652 18.1031C48.4531 18.3762 48.5411 18.6492 48.6151 18.9265C48.8604 19.8055 49.0317 20.71 49.1196 21.6273C49.1566 21.9003 49.1798 22.1734 49.1937 22.4507C49.2076 22.7579 49.2168 23.0651 49.2168 23.3723L49.2122 23.3851Z" fill="#CC9007"/>
<path d="M49.1844 24.392C49.1705 24.6736 49.1474 24.9467 49.1104 25.2197H43.649V24.392H49.1844Z" fill="#AA7A06"/>
<path d="M48.8141 27.0074C48.754 27.289 48.6892 27.5621 48.6151 27.8352H41.8995V27.0074H48.8141Z" fill="#AA7A06"/>
<path d="M47.3238 31.1033C47.1896 31.3849 47.0369 31.6623 46.8795 31.931H40.2704V31.1033H47.3238Z" fill="#AA7A06"/>
<path d="M45.6299 33.7785C45.4216 34.0601 45.1995 34.3374 44.9588 34.6062H38.0951V33.7785H45.6299Z" fill="#AA7A06"/>
<path d="M43.1954 36.3896C42.8668 36.684 42.5382 36.9571 42.1957 37.2131H35.7717V36.3896H43.1954Z" fill="#AA7A06"/>
<path d="M39.6271 38.8942C39.0809 39.2014 38.5163 39.4744 37.9378 39.7176H32.4209V38.8942H39.6224H39.6271Z" fill="#AA7A06"/>
<path d="M49.1937 22.4635H43.2788V21.6401H49.1197C49.1567 21.9131 49.1798 22.1862 49.1937 22.4635Z" fill="#AA7A06"/>
<path d="M48.6151 18.9351H42.603V18.1116H48.3606C48.4485 18.3847 48.5364 18.6578 48.6105 18.9351H48.6151Z" fill="#AA7A06"/>
<path d="M46.8148 14.724H40.7888V13.9048H46.2964C46.4723 14.1693 46.6528 14.4424 46.8148 14.724Z" fill="#AA7A06"/>
<path d="M43.6305 10.7731H36.9242V9.94965H42.691C43.0196 10.2099 43.3297 10.4872 43.6305 10.7731Z" fill="#AA7A06"/>
<path d="M40.1362 8.15768H33.6382V7.33423H38.5673C39.1088 7.58169 39.6318 7.85902 40.1362 8.15768Z" fill="#AA7A06"/>
<path d="M44.7737 23.3849C44.7737 33.3473 36.017 41.4197 25.2101 41.4197C14.4031 41.4197 5.64648 33.3431 5.64648 23.3849C5.64648 13.4267 14.4078 5.35004 25.2101 5.35004C36.0124 5.35004 44.7737 13.4224 44.7737 23.3849Z" fill="#FFD000"/>
<path d="M41.4506 23.3851C41.4506 31.6538 34.1797 38.3523 25.2148 38.3523C16.2498 38.3523 8.97424 31.6495 8.97424 23.3851C8.97424 15.1208 16.2452 8.41797 25.2148 8.41797C34.1843 8.41797 41.4506 15.1208 41.4506 23.3851Z" fill="#FCBC00"/>
<path d="M26.5662 37.1022C17.5966 37.1022 10.3257 30.3994 10.3257 22.135C10.3257 18.3207 11.8761 14.8391 14.4217 12.1981C11.0754 14.9415 8.96497 18.9351 8.96497 23.3851C8.96497 31.6537 16.2359 38.3523 25.2055 38.3523C30.0374 38.3523 34.3694 36.4067 37.3454 33.322C34.4759 35.6729 30.7038 37.1022 26.5616 37.1022H26.5662Z" fill="#C57F0C"/>
<path d="M25.386 35.4425V32.3364C23.4514 32.3066 21.4473 31.7519 20.281 30.9839L21.0817 28.9232C22.285 29.6613 24.0206 30.2458 25.8858 30.2458C28.2555 30.2458 29.8568 28.9829 29.8568 27.2293C29.8568 25.4758 28.5563 24.4902 26.0848 23.5686C22.6784 22.3398 20.5772 20.9233 20.5772 18.2439C20.5772 15.5645 22.5442 13.7512 25.6174 13.2904V10.1843H27.6862V13.1667C29.6902 13.2264 31.0556 13.7213 32.0275 14.2418L31.1944 16.2727C30.4955 15.9015 29.1256 15.2274 26.9873 15.2274C24.4187 15.2274 23.4514 16.6439 23.4514 17.8727C23.4514 19.4727 24.6871 20.2705 27.589 21.3798C31.0278 22.6726 32.7634 24.2726 32.7634 27.0117C32.7634 29.4437 30.926 31.7178 27.4918 32.2426V35.4425H25.3906H25.386Z" fill="white"/>
<path d="M113.286 78.279C112.999 78.4923 112.712 78.6971 112.411 78.8891C112.166 79.0555 111.92 79.2091 111.666 79.3542C111.11 79.687 110.55 79.9899 109.967 80.2629C109.694 80.3952 109.421 80.5189 109.143 80.6384C107.982 81.1248 106.787 81.5003 105.575 81.7605C105.256 81.8416 104.922 81.9056 104.598 81.961C103.821 82.0933 103.039 82.1786 102.252 82.2213C101.886 82.2469 101.511 82.264 101.132 82.2554C100.262 82.2682 99.3823 82.2213 98.5168 82.1104C98.0632 82.0592 97.6235 81.9909 97.1931 81.9098C96.1564 81.7221 95.1474 81.4576 94.1616 81.1163C93.5599 80.9157 92.9768 80.6811 92.4075 80.4208C89.9083 79.2987 87.6358 77.6603 85.7799 75.5356L82.9983 72.3442L113.498 49.7441C113.498 49.7441 114.327 50.6955 116.28 52.9355C118.289 55.2394 119.585 57.8677 120.186 60.5855C120.316 61.1273 120.408 61.682 120.473 62.2324C120.594 63.2094 120.626 64.2035 120.561 65.1891C120.547 65.5859 120.506 65.9827 120.455 66.3837C120.283 67.7021 119.955 69.0034 119.478 70.2621C119.362 70.5565 119.247 70.8551 119.108 71.1453C118.608 72.2716 117.974 73.3511 117.215 74.3793C117.039 74.614 116.863 74.8486 116.673 75.079C116.081 75.8044 115.428 76.4913 114.702 77.1355C114.494 77.3318 114.276 77.5195 114.049 77.7073C113.799 77.9121 113.545 78.1083 113.286 78.3003V78.279Z" fill="#CC9007"/>
<path d="M112.411 78.8891C112.165 79.0555 111.92 79.2091 111.666 79.3542L108.245 75.4289L108.944 74.9127L112.415 78.8891H112.411Z" fill="#AA7A06"/>
<path d="M109.972 80.263C109.699 80.3953 109.426 80.519 109.148 80.6385L104.941 75.813L105.64 75.2967L109.972 80.263Z" fill="#AA7A06"/>
<path d="M105.575 81.7563C105.256 81.8373 104.922 81.9013 104.598 81.9568L100.456 77.2081L101.155 76.6918L105.575 81.7605V81.7563Z" fill="#AA7A06"/>
<path d="M102.252 82.2171C101.886 82.2427 101.511 82.2598 101.132 82.2512L96.8322 77.3191L97.531 76.8028L102.252 82.2171Z" fill="#AA7A06"/>
<path d="M98.5168 82.1061C98.0632 82.0549 97.6235 81.9867 97.1931 81.9056L93.1665 77.2891L93.8654 76.7729L98.5168 82.1061Z" fill="#AA7A06"/>
<path d="M94.1616 81.1077C93.5599 80.9072 92.9768 80.6725 92.4075 80.4123L88.9502 76.4486L89.6491 75.9324L94.1616 81.1077Z" fill="#AA7A06"/>
<path d="M114.049 77.6859L110.342 73.4364L111.041 72.9202L114.697 77.1185C114.489 77.3147 114.271 77.5025 114.045 77.6902L114.049 77.6859Z" fill="#AA7A06"/>
<path d="M116.669 75.062L112.901 70.7442L113.6 70.228L117.21 74.3665C117.034 74.6012 116.859 74.8359 116.669 75.0663V75.062Z" fill="#AA7A06"/>
<path d="M119.103 71.1282L115.327 66.7976L116.021 66.2856L119.473 70.245C119.358 70.5394 119.242 70.8381 119.103 71.1282Z" fill="#AA7A06"/>
<path d="M120.45 66.3667L116.248 61.5498L116.946 61.0335L120.561 65.1764C120.547 65.5731 120.506 65.9699 120.455 66.371L120.45 66.3667Z" fill="#AA7A06"/>
<path d="M120.469 62.2196L116.396 57.5477L117.095 57.0314L120.182 60.5727C120.311 61.1146 120.404 61.6692 120.469 62.2196Z" fill="#AA7A06"/>
<path d="M110.504 75.0876C102.081 81.3296 89.7694 80.0923 82.9983 72.3314C76.2271 64.5662 77.5693 53.2171 85.9881 46.9751C94.4069 40.7374 106.723 41.9704 113.494 49.7356C120.265 57.5008 118.923 68.8499 110.504 75.0919V75.0876Z" fill="#FFD000"/>
<path d="M108.421 72.6983C101.433 77.8779 91.2088 76.854 85.5901 70.4072C79.9714 63.9646 81.0822 54.5397 88.0754 49.3601C95.0641 44.1805 105.288 45.2045 110.907 51.6513C116.525 58.0938 115.414 67.5187 108.421 72.6983Z" fill="#FCBC00"/>
<path d="M87.4969 70.6034C81.8782 64.1609 82.989 54.736 89.9777 49.5564C93.2035 47.1671 97.119 46.1004 100.947 46.2753C96.5313 45.5884 91.8336 46.5783 88.0708 49.3644C81.0822 54.544 79.9668 63.9646 85.5854 70.4114C88.6123 73.8801 92.9721 75.7788 97.443 75.9836C93.6571 75.3948 90.0841 73.5772 87.4923 70.6034H87.4969Z" fill="#C57F0C"/>
<path d="M88.1588 68.7134L90.7877 66.7678C89.6028 65.3598 88.816 63.5721 88.7327 62.2495L90.9774 61.5327C91.107 62.8596 91.6994 64.4724 92.8704 65.8163C94.356 67.5187 96.4249 67.8814 97.9059 66.7806C99.336 65.7225 99.4055 64.131 98.6372 61.7759C97.5449 58.5589 97.4246 56.1611 99.6878 54.4843C101.849 52.8843 104.719 53.0849 107.033 55.0006L109.662 53.055L110.958 54.5398L108.435 56.4085C109.639 57.8848 110.078 59.1775 110.245 60.2015L108.005 60.8756C107.88 60.1418 107.593 58.7338 106.255 57.1978C104.645 55.3504 102.844 55.5424 101.803 56.3147C100.451 57.3173 100.549 58.7039 101.428 61.4858C102.488 64.7668 102.224 67.0153 99.9099 68.7304C97.855 70.2536 94.7818 70.3603 92.1854 68.2184L89.4779 70.2237L88.1588 68.7134Z" fill="white"/>
<path d="M104.422 67.1517C104.422 67.493 104.413 67.8258 104.39 68.1629C104.376 68.4445 104.353 68.7176 104.316 68.9863C104.251 69.5922 104.154 70.1895 104.02 70.774C103.96 71.0556 103.895 71.3287 103.821 71.6018C103.501 72.7409 103.076 73.8332 102.534 74.87C102.4 75.1516 102.247 75.4289 102.09 75.6934C101.71 76.3334 101.298 76.9478 100.84 77.5451C100.632 77.8267 100.41 78.104 100.165 78.3728C99.6323 79.0085 99.0398 79.6101 98.4011 80.1605C98.0772 80.4549 97.7439 80.728 97.4014 80.984C96.5961 81.6112 95.7353 82.1701 94.8328 82.665C94.2866 82.9722 93.722 83.2453 93.1481 83.4885C90.6303 84.5807 87.8256 85.1866 84.8635 85.1866H80.4204V49.1126H84.8635C88.0663 49.1126 91.1024 49.8294 93.7775 51.0966C94.319 51.344 94.842 51.6214 95.3465 51.9243C96.249 52.4491 97.1099 53.0507 97.9013 53.712C98.2253 53.9722 98.54 54.2496 98.8408 54.5354C99.8498 55.4826 100.743 56.5365 101.507 57.6671C101.683 57.9316 101.863 58.2047 102.025 58.4863C102.664 59.5529 103.182 60.6836 103.571 61.8697C103.659 62.1427 103.747 62.4158 103.821 62.6931C104.066 63.5721 104.237 64.4766 104.325 65.3939C104.362 65.6669 104.385 65.94 104.399 66.2216C104.413 66.5288 104.422 66.836 104.422 67.1432V67.1517Z" fill="#CC9007"/>
<path d="M104.39 68.1629C104.376 68.4445 104.353 68.7176 104.316 68.9864H98.8547V68.1629H104.39Z" fill="#AA7A06"/>
<path d="M104.02 70.7783C103.96 71.0599 103.895 71.333 103.821 71.606H97.1052V70.7783H104.02Z" fill="#AA7A06"/>
<path d="M102.534 74.8699C102.4 75.1515 102.247 75.4289 102.09 75.6934H95.4807V74.8699H102.534Z" fill="#AA7A06"/>
<path d="M100.836 77.5451C100.627 77.8267 100.405 78.104 100.16 78.3728H93.2961V77.5451H100.831H100.836Z" fill="#AA7A06"/>
<path d="M98.4011 80.1605C98.0771 80.4549 97.7439 80.728 97.4014 80.984H90.9774V80.1605H98.4011Z" fill="#AA7A06"/>
<path d="M94.8328 82.665C94.2866 82.9722 93.722 83.2452 93.1481 83.4884H87.6312V82.665H94.8328Z" fill="#AA7A06"/>
<path d="M104.399 66.2301H98.4845V65.4024H104.325C104.362 65.6755 104.386 65.9485 104.399 66.2301Z" fill="#AA7A06"/>
<path d="M103.821 62.7017H97.8087V61.8782H103.566C103.654 62.1513 103.742 62.4244 103.816 62.7017H103.821Z" fill="#AA7A06"/>
<path d="M102.02 58.4948H95.9945V57.6757H101.502C101.678 57.9402 101.858 58.2133 102.02 58.4948Z" fill="#AA7A06"/>
<path d="M98.8362 54.544H92.1299V53.7205H97.8967C98.2207 53.9808 98.5354 54.2581 98.8362 54.544Z" fill="#AA7A06"/>
<path d="M95.3419 51.9285H88.8439V51.1008H93.773C94.3145 51.3483 94.8374 51.6256 95.3419 51.9285Z" fill="#AA7A06"/>
<path d="M99.9794 67.1515C99.9794 77.1139 91.2227 85.1863 80.4158 85.1863C69.6088 85.1863 60.8522 77.1139 60.8522 67.1515C60.8522 57.189 69.6134 49.1166 80.4158 49.1166C91.2181 49.1166 99.9794 57.189 99.9794 67.1515Z" fill="#FFD000"/>
<path d="M96.6563 67.1517C96.6563 75.4204 89.3854 82.1189 80.4204 82.1189C71.4555 82.1189 64.1799 75.4161 64.1799 67.1517C64.1799 58.8874 71.4509 52.1846 80.4204 52.1846C89.39 52.1846 96.6563 58.8874 96.6563 67.1517Z" fill="#FCBC00"/>
<path d="M81.7765 80.8688C72.807 80.8688 65.536 74.166 65.536 65.9016C65.536 62.0873 67.0865 58.6057 69.632 55.9647C66.2858 58.7081 64.1753 62.7017 64.1753 67.1517C64.1753 75.4203 71.4463 82.1189 80.4158 82.1189C85.2477 82.1189 89.5797 80.1733 92.5557 77.0886C89.6862 79.4395 85.9142 80.8688 81.7719 80.8688H81.7765Z" fill="#C57F0C"/>
<path d="M80.5916 79.2134V76.1073C78.657 76.0774 76.653 75.5228 75.4867 74.7548L76.2874 72.694C77.4907 73.4321 79.2263 74.0167 81.0915 74.0167C83.4612 74.0167 85.0625 72.7538 85.0625 71.0002C85.0625 69.2466 83.762 68.261 81.2905 67.3395C77.8841 66.1107 75.7829 64.6942 75.7829 62.0148C75.7829 59.3354 77.7499 57.5221 80.8231 57.0613V53.9552H82.8919V56.9375C84.8959 56.9973 86.2612 57.4922 87.2332 58.0127L86.4001 60.0436C85.7012 59.6724 84.3313 58.9983 82.193 58.9983C79.6243 58.9983 78.657 60.4148 78.657 61.6436C78.657 63.2435 79.8928 64.0414 82.7947 65.1507C86.2335 66.4435 87.9691 68.0435 87.9691 70.7826C87.9691 73.2145 86.1317 75.4886 82.6975 76.0134V79.2134H80.5963H80.5916Z" fill="white"/>
</g>
<defs>
<clipPath id="clip0_305_1756">
<rect width="120.589" height="85.1908" fill="white"/>
</clipPath>
</defs>
</svg>
