<svg width="90" height="90" viewBox="0 0 90 90" fill="none" xmlns="http://www.w3.org/2000/svg">
<rect x="2.5" y="2.5" width="85" height="85" rx="12.5" fill="#0A9B7D"/>
<rect x="2.5" y="2.5" width="85" height="85" rx="12.5" stroke="#D9D9D9" stroke-width="5"/>
<g clip-path="url(#clip0_308_2136)">
<path d="M45.5 70C41.9725 70 38.6575 69.3433 35.555 68.03C32.4525 66.7167 29.7537 64.9358 27.4587 62.6875C25.1638 60.4392 23.3473 57.7933 22.0094 54.75C20.6715 51.7067 20.0017 48.4567 20 45C19.9983 41.5433 20.6681 38.2933 22.0094 35.25C23.3507 32.2067 25.1672 29.5608 27.4587 27.3125C29.7503 25.0642 32.4491 23.2833 35.555 21.97C38.6609 20.6567 41.9759 20 45.5 20C49.0241 20 52.3391 20.6567 55.445 21.97C58.5509 23.2833 61.2496 25.0642 63.5412 27.3125C65.8328 29.5608 67.6501 32.2067 68.9931 35.25C70.3361 38.2933 71.0051 41.5433 71 45C70.9949 48.4567 70.3251 51.7067 68.9906 54.75C67.6561 57.7933 65.8396 60.4392 63.5412 62.6875C61.2428 64.9358 58.5441 66.7175 55.445 68.0325C52.3459 69.3475 49.0309 70.0033 45.5 70ZM45.5 65C51.195 65 56.0187 63.0625 59.9712 59.1875C63.9237 55.3125 65.9 50.5833 65.9 45C65.9 44.7083 65.8898 44.4058 65.8694 44.0925C65.849 43.7792 65.8379 43.5192 65.8362 43.3125C65.6237 44.5208 65.05 45.5208 64.115 46.3125C63.18 47.1042 62.075 47.5 60.8 47.5H55.7C54.2975 47.5 53.0973 47.0108 52.0994 46.0325C51.1015 45.0542 50.6017 43.8767 50.6 42.5V40H40.4V35C40.4 33.625 40.8998 32.4483 41.8994 31.47C42.899 30.4917 44.0992 30.0017 45.5 30H48.05C48.05 29.0417 48.316 28.1983 48.8481 27.47C49.3802 26.7417 50.0279 26.1475 50.7912 25.6875C49.9412 25.4792 49.081 25.3125 48.2106 25.1875C47.3402 25.0625 46.4367 25 45.5 25C39.805 25 34.9812 26.9375 31.0287 30.8125C27.0762 34.6875 25.1 39.4167 25.1 45H37.85C40.655 45 43.0562 45.9792 45.0537 47.9375C47.0512 49.8958 48.05 52.25 48.05 55V57.5H40.4V64.375C41.25 64.5833 42.0898 64.74 42.9194 64.845C43.749 64.95 44.6092 65.0017 45.5 65Z" fill="white"/>
</g>
<defs>
<clipPath id="clip0_308_2136">
<rect width="50" height="50" fill="white" transform="translate(20.5 20)"/>
</clipPath>
</defs>
</svg>
